<mxfile host="app.diagrams.net" agent="Mozilla/5.0 (X11; Linux x86_64; rv:138.0) Gecko/20100101 Firefox/138.0" version="27.0.8">
  <diagram id="C5RBs43oDa-KdzZeNtuy" name="Page-1">
    <mxGraphModel dx="792" dy="1882" grid="1" gridSize="10" guides="1" tooltips="1" connect="1" arrows="1" fold="1" page="1" pageScale="1" pageWidth="1100" pageHeight="850" math="0" shadow="0">
      <root>
        <mxCell id="WIyWlLk6GJQsqaUBKTNV-0" />
        <mxCell id="WIyWlLk6GJQsqaUBKTNV-1" parent="WIyWlLk6GJQsqaUBKTNV-0" />
        <mxCell id="N2CqPFAMYml7u8-fk6KA-11" value="" style="shape=image;verticalLabelPosition=bottom;labelBackgroundColor=default;verticalAlign=top;aspect=fixed;imageAspect=0;editableCssRules=.*;image=data:image/svg+xml,PHN2ZyBpZD0ic3ZnNTIiIHZlcnNpb249IjEuMSIgdmlld0JveD0iLTAuMjQ5OTA3OTcwNDI4NDY2OCAwIDE0ODIuNSA1NDQuNDcyNTk1MjE0ODQzOCIgaGVpZ2h0PSI1NDQuNDcyNTk1MjE0ODQzOCIgd2lkdGg9IjE0ODMuMDAxMTA2MDczNzQyMiIgeG1sbnM9Imh0dHA6Ly93d3cudzMub3JnLzIwMDAvc3ZnIj4mI3hhOyAgPGcgdHJhbnNmb3JtPSJ0cmFuc2xhdGUoMy43NTAwOTIsMjEyKSIgY2xhc3M9ImdyYXBoIiBpZD0iZ3JhcGgwIj4mI3hhOyAgICA8dGl0bGUgaWQ9InRpdGxlMSI+IFVNTCBjbGFzcyBkaWFncmFtPC90aXRsZT4mI3hhOyAgICA8cG9seWdvbiBpZD0icG9seWdvbjEiIHBvaW50cz0iLTQsLTIxMiAxNDc4LjUsLTIxMiAxNDc4LjUsNCAtNCw0IiBzdHJva2U9Im5vbmUiIGZpbGwtb3BhY2l0eT0iMCIgZmlsbD0iI2ZmZmZmZiIvPiYjeGE7ICAgICYjeGE7ICAgIDxnIHRyYW5zZm9ybT0idHJhbnNsYXRlKDQwNi4zMjQzNiw0MDkuNjkwMTgpIiBjbGFzcz0ibm9kZSIgaWQ9Im5vZGUxIj4mI3hhOyAgICAgIDx0aXRsZSBpZD0idGl0bGUyIj5DaGFzc2lzU3BlZWRzPC90aXRsZT4mI3hhOyAgICAgIDxwb2x5Z29uIGlkPSJwb2x5Z29uMiIgcG9pbnRzPSIxMDYsLTE1MSAwLC0xNTEgMCwtMjAzIDEwNiwtMjAzIiBzdHJva2U9IiMwMDAwMDAiIGZpbGw9IiNmMmYyZjIiLz4mI3hhOyAgICAgIDx0ZXh0IGlkPSJ0ZXh0MiIgZm9udC1zaXplPSI4cHgiIGZvbnQtZmFtaWx5PSInQml0c3RyZWFtIFZlcmEgU2FucyciIHk9Ii0xOTIuNjAwMDEiIHg9IjUzIiB0ZXh0LWFuY2hvcj0ibWlkZGxlIj5DaGFzc2lzU3BlZWRzPC90ZXh0PiYjeGE7ICAgICAgPHBvbHlsaW5lIGlkPSJwb2x5bGluZTIiIHBvaW50cz0iMCwtMTg2IDEwNiwtMTg2IiBzdHJva2U9IiMwMDAwMDAiIGZpbGw9Im5vbmUiLz4mI3hhOyAgICAgIDx0ZXh0IGlkPSJ0ZXh0MyIgZm9udC1zaXplPSI4cHgiIGZvbnQtZmFtaWx5PSInQml0c3RyZWFtIFZlcmEgU2FucyciIHk9Ii0xNzUuNjAwMDEiIHg9IjUzIiB0ZXh0LWFuY2hvcj0ibWlkZGxlIj4rIHZ4OmRvdWJsZTwvdGV4dD4mI3hhOyAgICAgIDx0ZXh0IGlkPSJ0ZXh0NCIgZm9udC1zaXplPSI4cHgiIGZvbnQtZmFtaWx5PSInQml0c3RyZWFtIFZlcmEgU2FucyciIHk9Ii0xNjYuNjAwMDEiIHg9IjUzIiB0ZXh0LWFuY2hvcj0ibWlkZGxlIj4rIHZ5OmRvdWJsZTwvdGV4dD4mI3hhOyAgICAgIDx0ZXh0IGlkPSJ0ZXh0NSIgZm9udC1zaXplPSI4cHgiIGZvbnQtZmFtaWx5PSInQml0c3RyZWFtIFZlcmEgU2FucyciIHk9Ii0xNTcuNjAwMDEiIHg9IjUzIiB0ZXh0LWFuY2hvcj0ibWlkZGxlIj4rIG9tZWdhOmRvdWJsZTwvdGV4dD4mI3hhOyAgICA8L2c+JiN4YTsgICAgJiN4YTsgICAgPGcgdHJhbnNmb3JtPSJ0cmFuc2xhdGUoMjkyLjIwNDQ1LDE3Mi44MzE2NikiIGNsYXNzPSJub2RlIiBpZD0ibm9kZTIiPiYjeGE7ICAgICAgPHRpdGxlIGlkPSJ0aXRsZTUiPkRpZmZlcmVudGlhbERyaXZlS2luZW1hdGljczwvdGl0bGU+JiN4YTsgICAgICA8cG9seWdvbiBpZD0icG9seWdvbjUiIHBvaW50cz0iMTI0LC0xNTkgMTI0LC0xOTUgMjc4LC0xOTUgMjc4LC0xNTkiIHN0cm9rZT0iIzAwMDAwMCIgZmlsbD0iI2YyZjJmMiIvPiYjeGE7ICAgICAgPHRleHQgaWQ9InRleHQ2IiBmb250LXNpemU9IjhweCIgZm9udC1mYW1pbHk9IidCaXRzdHJlYW0gVmVyYSBTYW5zJyIgeT0iLTE4NC4xMDAwMSIgeD0iMjAxIiB0ZXh0LWFuY2hvcj0ibWlkZGxlIj5EaWZmZXJlbnRpYWxEcml2ZUtpbmVtYXRpY3M8L3RleHQ+JiN4YTsgICAgICA8cG9seWxpbmUgaWQ9InBvbHlsaW5lNiIgcG9pbnRzPSIxMjQsLTE3NyAyNzgsLTE3NyIgc3Ryb2tlPSIjMDAwMDAwIiBmaWxsPSJub25lIi8+JiN4YTsgICAgICA8dGV4dCBpZD0idGV4dDciIGZvbnQtc2l6ZT0iOHB4IiBmb250LWZhbWlseT0iJ0JpdHN0cmVhbSBWZXJhIFNhbnMnIiB5PSItMTY2LjEwMDAxIiB4PSIyMDEiIHRleHQtYW5jaG9yPSJtaWRkbGUiPisgdHJhY2tfd2lkdGg6ZG91YmxlPC90ZXh0PiYjeGE7ICAgIDwvZz4mI3hhOyAgICAmI3hhOyAgICA8ZyB0cmFuc2Zvcm09InRyYW5zbGF0ZSgyMS41OTIyMTUsMTE4LjU4NTc5KSIgY2xhc3M9Im5vZGUiIGlkPSJub2RlMyI+JiN4YTsgICAgICA8dGl0bGUgaWQ9InRpdGxlNyI+RGlmZmVyZW50aWFsRHJpdmVXaGVlbFNwZWVkczwvdGl0bGU+JiN4YTsgICAgICA8cG9seWdvbiBpZD0icG9seWdvbjciIHBvaW50cz0iNDYwLC0xNTUuNSAyOTYsLTE1NS41IDI5NiwtMTk4LjUgNDYwLC0xOTguNSIgc3Ryb2tlPSIjMDAwMDAwIiBmaWxsPSIjZjJmMmYyIi8+JiN4YTsgICAgICA8dGV4dCBpZD0idGV4dDgiIGZvbnQtc2l6ZT0iOHB4IiBmb250LWZhbWlseT0iJ0JpdHN0cmVhbSBWZXJhIFNhbnMnIiB5PSItMTg4LjEwMDAxIiB4PSIzNzgiIHRleHQtYW5jaG9yPSJtaWRkbGUiPkRpZmZlcmVudGlhbERyaXZlV2hlZWxTcGVlZHM8L3RleHQ+JiN4YTsgICAgICA8cG9seWxpbmUgaWQ9InBvbHlsaW5lOCIgcG9pbnRzPSIyOTYsLTE4MS41IDQ2MCwtMTgxLjUiIHN0cm9rZT0iIzAwMDAwMCIgZmlsbD0ibm9uZSIvPiYjeGE7ICAgICAgPHRleHQgaWQ9InRleHQ5IiBmb250LXNpemU9IjhweCIgZm9udC1mYW1pbHk9IidCaXRzdHJlYW0gVmVyYSBTYW5zJyIgeT0iLTE3MS4xMDAwMSIgeD0iMzc4IiB0ZXh0LWFuY2hvcj0ibWlkZGxlIj4rIGxlZnQ6ZG91YmxlPC90ZXh0PiYjeGE7ICAgICAgPHRleHQgaWQ9InRleHQxMCIgZm9udC1zaXplPSI4cHgiIGZvbnQtZmFtaWx5PSInQml0c3RyZWFtIFZlcmEgU2FucyciIHk9Ii0xNjIuMTAwMDEiIHg9IjM3OCIgdGV4dC1hbmNob3I9Im1pZGRsZSI+KyByaWdodDpkb3VibGU8L3RleHQ+JiN4YTsgICAgPC9nPiYjeGE7ICAgICYjeGE7ICAgIDxnIHRyYW5zZm9ybT0idHJhbnNsYXRlKDI1LjAyNDY4NSwxMTguMTE1ODkpIiBjbGFzcz0ibm9kZSIgaWQ9Im5vZGU0Ij4mI3hhOyAgICAgIDx0aXRsZSBpZD0idGl0bGUxMCI+RGlmZmVyZW50aWFsRHJpdmVXaGVlbFBvc2l0aW9uczwvdGl0bGU+JiN4YTsgICAgICA8cG9seWdvbiBpZD0icG9seWdvbjEwIiBwb2ludHM9IjQ3OCwtMTU1LjUgNDc4LC0xOTguNSA2NDgsLTE5OC41IDY0OCwtMTU1LjUiIHN0cm9rZT0iIzAwMDAwMCIgZmlsbD0iI2YyZjJmMiIvPiYjeGE7ICAgICAgPHRleHQgaWQ9InRleHQxMSIgZm9udC1zaXplPSI4cHgiIGZvbnQtZmFtaWx5PSInQml0c3RyZWFtIFZlcmEgU2FucyciIHk9Ii0xODguMTAwMDEiIHg9IjU2MyIgdGV4dC1hbmNob3I9Im1pZGRsZSI+RGlmZmVyZW50aWFsRHJpdmVXaGVlbFBvc2l0aW9uczwvdGV4dD4mI3hhOyAgICAgIDxwb2x5bGluZSBpZD0icG9seWxpbmUxMSIgcG9pbnRzPSI0NzgsLTE4MS41IDY0OCwtMTgxLjUiIHN0cm9rZT0iIzAwMDAwMCIgZmlsbD0ibm9uZSIvPiYjeGE7ICAgICAgPHRleHQgaWQ9InRleHQxMiIgZm9udC1zaXplPSI4cHgiIGZvbnQtZmFtaWx5PSInQml0c3RyZWFtIFZlcmEgU2FucyciIHk9Ii0xNzEuMTAwMDEiIHg9IjU2MyIgdGV4dC1hbmNob3I9Im1pZGRsZSI+KyBsZWZ0OmRvdWJsZTwvdGV4dD4mI3hhOyAgICAgIDx0ZXh0IGlkPSJ0ZXh0MTMiIGZvbnQtc2l6ZT0iOHB4IiBmb250LWZhbWlseT0iJ0JpdHN0cmVhbSBWZXJhIFNhbnMnIiB5PSItMTYyLjEwMDAxIiB4PSI1NjMiIHRleHQtYW5jaG9yPSJtaWRkbGUiPisgcmlnaHQ6ZG91YmxlPC90ZXh0PiYjeGE7ICAgIDwvZz4mI3hhOyAgICAmI3hhOyAgICA8ZyB0cmFuc2Zvcm09InRyYW5zbGF0ZSgtNTUzLjM3MDEyLDExMi4yMzYzMykiIGNsYXNzPSJub2RlIiBpZD0ibm9kZTUiPiYjeGE7ICAgICAgPHRpdGxlIGlkPSJ0aXRsZTEzIj5NZWNhbnVtRHJpdmVLaW5lbWF0aWNzPC90aXRsZT4mI3hhOyAgICAgIDxwb2x5Z29uIGlkPSJwb2x5Z29uMTMiIHBvaW50cz0iNjY2LC0yMDcuNSA4MTgsLTIwNy41IDgxOCwtMTQ2LjUgNjY2LC0xNDYuNSIgc3Ryb2tlPSIjMDAwMDAwIiBmaWxsPSIjZjJmMmYyIi8+JiN4YTsgICAgICA8dGV4dCBpZD0idGV4dDE0IiBmb250LXNpemU9IjhweCIgZm9udC1mYW1pbHk9IidCaXRzdHJlYW0gVmVyYSBTYW5zJyIgeT0iLTE5Ny4xMDAwMSIgeD0iNzQyIiB0ZXh0LWFuY2hvcj0ibWlkZGxlIj5NZWNhbnVtRHJpdmVLaW5lbWF0aWNzPC90ZXh0PiYjeGE7ICAgICAgPHBvbHlsaW5lIGlkPSJwb2x5bGluZTE0IiBwb2ludHM9IjY2NiwtMTkwLjUgODE4LC0xOTAuNSIgc3Ryb2tlPSIjMDAwMDAwIiBmaWxsPSJub25lIi8+JiN4YTsgICAgICA8dGV4dCBpZD0idGV4dDE1IiBmb250LXNpemU9IjhweCIgZm9udC1mYW1pbHk9IidCaXRzdHJlYW0gVmVyYSBTYW5zJyIgeT0iLTE4MC4xMDAwMSIgeD0iNzQyIiB0ZXh0LWFuY2hvcj0ibWlkZGxlIj4rIGZyb250X2xlZnQ6VHJhbnNsYXRpb24yZDwvdGV4dD4mI3hhOyAgICAgIDx0ZXh0IGlkPSJ0ZXh0MTYiIGZvbnQtc2l6ZT0iOHB4IiBmb250LWZhbWlseT0iJ0JpdHN0cmVhbSBWZXJhIFNhbnMnIiB5PSItMTcxLjEwMDAxIiB4PSI3NDIiIHRleHQtYW5jaG9yPSJtaWRkbGUiPisgZnJvbnRfcmlnaHQ6VHJhbnNsYXRpb24yZDwvdGV4dD4mI3hhOyAgICAgIDx0ZXh0IGlkPSJ0ZXh0MTciIGZvbnQtc2l6ZT0iOHB4IiBmb250LWZhbWlseT0iJ0JpdHN0cmVhbSBWZXJhIFNhbnMnIiB5PSItMTYyLjEwMDAxIiB4PSI3NDIiIHRleHQtYW5jaG9yPSJtaWRkbGUiPisgcmVhcl9sZWZ0OlRyYW5zbGF0aW9uMmQ8L3RleHQ+JiN4YTsgICAgICA8dGV4dCBpZD0idGV4dDE4IiBmb250LXNpemU9IjhweCIgZm9udC1mYW1pbHk9IidCaXRzdHJlYW0gVmVyYSBTYW5zJyIgeT0iLTE1My4xMDAwMSIgeD0iNzQyIiB0ZXh0LWFuY2hvcj0ibWlkZGxlIj4rIHJlYXJfcmlnaHQ6VHJhbnNsYXRpb24yZDwvdGV4dD4mI3hhOyAgICA8L2c+JiN4YTsgICAgJiN4YTsgICAgPGcgdHJhbnNmb3JtPSJ0cmFuc2xhdGUoLTU1My4zNzAxMiwxMTIuMjM2MzMpIiBjbGFzcz0ibm9kZSIgaWQ9Im5vZGUxMSI+JiN4YTsgICAgICA8dGl0bGUgaWQ9InRpdGxlMTgiPlRyYW5zbGF0aW9uMmQ8L3RpdGxlPiYjeGE7ICAgICAgPHBvbHlnb24gaWQ9InBvbHlnb24xOCIgcG9pbnRzPSI2OTEuNSwtMTA5LjUgNzkyLjUsLTEwOS41IDc5Mi41LC03My41IDY5MS41LC03My41IiBzdHJva2U9IiMwMDAwMDAiIGZpbGw9IiNmMmYyZjIiLz4mI3hhOyAgICAgIDx0ZXh0IGlkPSJ0ZXh0MTkiIGZvbnQtc2l6ZT0iOHB4IiBmb250LWZhbWlseT0iJ0JpdHN0cmVhbSBWZXJhIFNhbnMnIiB5PSItODkuNTk5OTk4IiB4PSI3NDIiIHRleHQtYW5jaG9yPSJtaWRkbGUiPlRyYW5zbGF0aW9uMmQ8L3RleHQ+JiN4YTsgICAgPC9nPiYjeGE7ICAgICYjeGE7ICAgIDxnIHRyYW5zZm9ybT0idHJhbnNsYXRlKC01NTMuMzcwMTIsMTEyLjIzNjMzKSIgY2xhc3M9ImVkZ2UiIGlkPSJlZGdlMSI+JiN4YTsgICAgICA8dGl0bGUgaWQ9InRpdGxlMTkiPk1lY2FudW1Ecml2ZUtpbmVtYXRpY3MtJmd0O1RyYW5zbGF0aW9uMmQ8L3RpdGxlPiYjeGE7ICAgICAgPHBhdGggaWQ9InBhdGgxOSIgZD0ibSA3MjIuNTksLTE0Ni44IGMgLTEuNzMsMTIuNjEgLTAuNzgsMjYuODkgMi44NSwzNy42NSIgc3Ryb2tlPSIjMDAwMDAwIiBmaWxsPSJub25lIi8+JiN4YTsgICAgICA8dGV4dCBpZD0idGV4dDIwIiBmb250LXNpemU9IjhweCIgZm9udC1mYW1pbHk9IidCaXRzdHJlYW0gVmVyYSBTYW5zJyIgeT0iLTExMS43NSIgeD0iNzIyLjk0IiB0ZXh0LWFuY2hvcj0ibWlkZGxlIj4xPC90ZXh0PiYjeGE7ICAgICAgPHRleHQgaWQ9InRleHQyMSIgZm9udC1zaXplPSI4cHgiIGZvbnQtZmFtaWx5PSInQml0c3RyZWFtIFZlcmEgU2FucyciIHk9Ii0xNDAuMzk5OTkiIHg9IjcyMC4wOTAwMyIgdGV4dC1hbmNob3I9Im1pZGRsZSI+MTwvdGV4dD4mI3hhOyAgICA8L2c+JiN4YTsgICAgJiN4YTsgICAgPGcgdHJhbnNmb3JtPSJ0cmFuc2xhdGUoLTU1My4zNzAxMiwxMTIuMjM2MzMpIiBjbGFzcz0iZWRnZSIgaWQ9ImVkZ2UyIj4mI3hhOyAgICAgIDx0aXRsZSBpZD0idGl0bGUyMSI+TWVjYW51bURyaXZlS2luZW1hdGljcy0mZ3Q7VHJhbnNsYXRpb24yZDwvdGl0bGU+JiN4YTsgICAgICA8cGF0aCBpZD0icGF0aDIxIiBkPSJtIDczNS41MywtMTQ2LjggYyAtMC41OCwxMi42MSAtMC4yNiwyNi44OSAwLjk1LDM3LjY1IiBzdHJva2U9IiMwMDAwMDAiIGZpbGw9Im5vbmUiLz4mI3hhOyAgICAgIDx0ZXh0IGlkPSJ0ZXh0MjIiIGZvbnQtc2l6ZT0iOHB4IiBmb250LWZhbWlseT0iJ0JpdHN0cmVhbSBWZXJhIFNhbnMnIiB5PSItMTExLjc1IiB4PSI3MzMuOTc5OTgiIHRleHQtYW5jaG9yPSJtaWRkbGUiPjE8L3RleHQ+JiN4YTsgICAgICA8dGV4dCBpZD0idGV4dDIzIiBmb250LXNpemU9IjhweCIgZm9udC1mYW1pbHk9IidCaXRzdHJlYW0gVmVyYSBTYW5zJyIgeT0iLTE0MC4zOTk5OSIgeD0iNzMzLjAzMDAzIiB0ZXh0LWFuY2hvcj0ibWlkZGxlIj4xPC90ZXh0PiYjeGE7ICAgIDwvZz4mI3hhOyAgICAmI3hhOyAgICA8ZyB0cmFuc2Zvcm09InRyYW5zbGF0ZSgtNTUzLjM3MDEyLDExMi4yMzYzMykiIGNsYXNzPSJlZGdlIiBpZD0iZWRnZTMiPiYjeGE7ICAgICAgPHRpdGxlIGlkPSJ0aXRsZTIzIj5NZWNhbnVtRHJpdmVLaW5lbWF0aWNzLSZndDtUcmFuc2xhdGlvbjJkPC90aXRsZT4mI3hhOyAgICAgIDxwYXRoIGlkPSJwYXRoMjMiIGQ9Im0gNzQ4LjQ3LC0xNDYuOCBjIDAuNTgsMTIuNjEgMC4yNiwyNi44OSAtMC45NSwzNy42NSIgc3Ryb2tlPSIjMDAwMDAwIiBmaWxsPSJub25lIi8+JiN4YTsgICAgICA8dGV4dCBpZD0idGV4dDI0IiBmb250LXNpemU9IjhweCIgZm9udC1mYW1pbHk9IidCaXRzdHJlYW0gVmVyYSBTYW5zJyIgeT0iLTExMS43NSIgeD0iNzQ1LjAyMDAyIiB0ZXh0LWFuY2hvcj0ibWlkZGxlIj4xPC90ZXh0PiYjeGE7ICAgICAgPHRleHQgaWQ9InRleHQyNSIgZm9udC1zaXplPSI4cHgiIGZvbnQtZmFtaWx5PSInQml0c3RyZWFtIFZlcmEgU2FucyciIHk9Ii0xNDAuMzk5OTkiIHg9Ijc0NS45Njk5NyIgdGV4dC1hbmNob3I9Im1pZGRsZSI+MTwvdGV4dD4mI3hhOyAgICA8L2c+JiN4YTsgICAgJiN4YTsgICAgPGcgdHJhbnNmb3JtPSJ0cmFuc2xhdGUoLTU1My4zNzAxMiwxMTIuMjM2MzMpIiBjbGFzcz0iZWRnZSIgaWQ9ImVkZ2U0Ij4mI3hhOyAgICAgIDx0aXRsZSBpZD0idGl0bGUyNSI+TWVjYW51bURyaXZlS2luZW1hdGljcy0mZ3Q7VHJhbnNsYXRpb24yZDwvdGl0bGU+JiN4YTsgICAgICA8cGF0aCBpZD0icGF0aDI1IiBkPSJtIDc2MS40MSwtMTQ2LjggYyAxLjczLDEyLjYxIDAuNzgsMjYuODkgLTIuODUsMzcuNjUiIHN0cm9rZT0iIzAwMDAwMCIgZmlsbD0ibm9uZSIvPiYjeGE7ICAgICAgPHRleHQgaWQ9InRleHQyNiIgZm9udC1zaXplPSI4cHgiIGZvbnQtZmFtaWx5PSInQml0c3RyZWFtIFZlcmEgU2FucyciIHk9Ii0xMTEuNzUiIHg9Ijc1Ni4wNiIgdGV4dC1hbmNob3I9Im1pZGRsZSI+MTwvdGV4dD4mI3hhOyAgICAgIDx0ZXh0IGlkPSJ0ZXh0MjciIGZvbnQtc2l6ZT0iOHB4IiBmb250LWZhbWlseT0iJ0JpdHN0cmVhbSBWZXJhIFNhbnMnIiB5PSItMTQwLjM5OTk5IiB4PSI3NTguOTA5OTciIHRleHQtYW5jaG9yPSJtaWRkbGUiPjE8L3RleHQ+JiN4YTsgICAgPC9nPiYjeGE7ICAgICYjeGE7ICAgIDxnIHRyYW5zZm9ybT0idHJhbnNsYXRlKC04MDYuODExOTUsMzguNTE5NTk5KSIgY2xhc3M9Im5vZGUiIGlkPSJub2RlNiI+JiN4YTsgICAgICA8dGl0bGUgaWQ9InRpdGxlMjciPk1lY2FudW1Ecml2ZVdoZWVsUG9zaXRpb25zPC90aXRsZT4mI3hhOyAgICAgIDxwb2x5Z29uIGlkPSJwb2x5Z29uMjciIHBvaW50cz0iODM2LjUsLTIwNy41IDEwMDEuNSwtMjA3LjUgMTAwMS41LC0xNDYuNSA4MzYuNSwtMTQ2LjUiIHN0cm9rZT0iIzAwMDAwMCIgZmlsbD0iI2YyZjJmMiIvPiYjeGE7ICAgICAgPHRleHQgaWQ9InRleHQyOCIgZm9udC1zaXplPSI4cHgiIGZvbnQtZmFtaWx5PSInQml0c3RyZWFtIFZlcmEgU2FucyciIHk9Ii0xOTcuMTAwMDEiIHg9IjkxOSIgdGV4dC1hbmNob3I9Im1pZGRsZSI+TWVjYW51bURyaXZlV2hlZWxQb3NpdGlvbnM8L3RleHQ+JiN4YTsgICAgICA8cG9seWxpbmUgaWQ9InBvbHlsaW5lMjgiIHBvaW50cz0iODM2LjUsLTE5MC41IDEwMDEuNSwtMTkwLjUiIHN0cm9rZT0iIzAwMDAwMCIgZmlsbD0ibm9uZSIvPiYjeGE7ICAgICAgPHRleHQgaWQ9InRleHQyOSIgZm9udC1zaXplPSI4cHgiIGZvbnQtZmFtaWx5PSInQml0c3RyZWFtIFZlcmEgU2FucyciIHk9Ii0xODAuMTAwMDEiIHg9IjkxOSIgdGV4dC1hbmNob3I9Im1pZGRsZSI+KyBmcm9udF9sZWZ0OmRvdWJsZTwvdGV4dD4mI3hhOyAgICAgIDx0ZXh0IGlkPSJ0ZXh0MzAiIGZvbnQtc2l6ZT0iOHB4IiBmb250LWZhbWlseT0iJ0JpdHN0cmVhbSBWZXJhIFNhbnMnIiB5PSItMTcxLjEwMDAxIiB4PSI5MTkiIHRleHQtYW5jaG9yPSJtaWRkbGUiPisgZnJvbnRfcmlnaHQ6ZG91YmxlPC90ZXh0PiYjeGE7ICAgICAgPHRleHQgaWQ9InRleHQzMSIgZm9udC1zaXplPSI4cHgiIGZvbnQtZmFtaWx5PSInQml0c3RyZWFtIFZlcmEgU2FucyciIHk9Ii0xNjIuMTAwMDEiIHg9IjkxOSIgdGV4dC1hbmNob3I9Im1pZGRsZSI+KyByZWFyX2xlZnQ6ZG91YmxlPC90ZXh0PiYjeGE7ICAgICAgPHRleHQgaWQ9InRleHQzMiIgZm9udC1zaXplPSI4cHgiIGZvbnQtZmFtaWx5PSInQml0c3RyZWFtIFZlcmEgU2FucyciIHk9Ii0xNTMuMTAwMDEiIHg9IjkxOSIgdGV4dC1hbmNob3I9Im1pZGRsZSI+KyByZWFyX3JpZ2h0OmRvdWJsZTwvdGV4dD4mI3hhOyAgICA8L2c+JiN4YTsgICAgJiN4YTsgICAgPGcgdHJhbnNmb3JtPSJ0cmFuc2xhdGUoLTgxMi43MzkyMywzOC45Mjk2NTkpIiBjbGFzcz0ibm9kZSIgaWQ9Im5vZGU3Ij4mI3hhOyAgICAgIDx0aXRsZSBpZD0idGl0bGUzMiI+TWVjYW51bURyaXZlV2hlZWxTcGVlZHM8L3RpdGxlPiYjeGE7ICAgICAgPHBvbHlnb24gaWQ9InBvbHlnb24zMiIgcG9pbnRzPSIxMDE5LjUsLTE0Ni41IDEwMTkuNSwtMjA3LjUgMTE3OC41LC0yMDcuNSAxMTc4LjUsLTE0Ni41IiBzdHJva2U9IiMwMDAwMDAiIGZpbGw9IiNmMmYyZjIiLz4mI3hhOyAgICAgIDx0ZXh0IGlkPSJ0ZXh0MzMiIGZvbnQtc2l6ZT0iOHB4IiBmb250LWZhbWlseT0iJ0JpdHN0cmVhbSBWZXJhIFNhbnMnIiB5PSItMTk3LjEwMDAxIiB4PSIxMDk5IiB0ZXh0LWFuY2hvcj0ibWlkZGxlIj5NZWNhbnVtRHJpdmVXaGVlbFNwZWVkczwvdGV4dD4mI3hhOyAgICAgIDxwb2x5bGluZSBpZD0icG9seWxpbmUzMyIgcG9pbnRzPSIxMDE5LjUsLTE5MC41IDExNzguNSwtMTkwLjUiIHN0cm9rZT0iIzAwMDAwMCIgZmlsbD0ibm9uZSIvPiYjeGE7ICAgICAgPHRleHQgaWQ9InRleHQzNCIgZm9udC1zaXplPSI4cHgiIGZvbnQtZmFtaWx5PSInQml0c3RyZWFtIFZlcmEgU2FucyciIHk9Ii0xODAuMTAwMDEiIHg9IjEwOTkiIHRleHQtYW5jaG9yPSJtaWRkbGUiPisgZnJvbnRfbGVmdDpkb3VibGU8L3RleHQ+JiN4YTsgICAgICA8dGV4dCBpZD0idGV4dDM1IiBmb250LXNpemU9IjhweCIgZm9udC1mYW1pbHk9IidCaXRzdHJlYW0gVmVyYSBTYW5zJyIgeT0iLTE3MS4xMDAwMSIgeD0iMTA5OSIgdGV4dC1hbmNob3I9Im1pZGRsZSI+KyBmcm9udF9yaWdodDpkb3VibGU8L3RleHQ+JiN4YTsgICAgICA8dGV4dCBpZD0idGV4dDM2IiBmb250LXNpemU9IjhweCIgZm9udC1mYW1pbHk9IidCaXRzdHJlYW0gVmVyYSBTYW5zJyIgeT0iLTE2Mi4xMDAwMSIgeD0iMTA5OSIgdGV4dC1hbmNob3I9Im1pZGRsZSI+KyByZWFyX2xlZnQ6ZG91YmxlPC90ZXh0PiYjeGE7ICAgICAgPHRleHQgaWQ9InRleHQzNyIgZm9udC1zaXplPSI4cHgiIGZvbnQtZmFtaWx5PSInQml0c3RyZWFtIFZlcmEgU2FucyciIHk9Ii0xNTMuMTAwMDEiIHg9IjEwOTkiIHRleHQtYW5jaG9yPSJtaWRkbGUiPisgcmVhcl9yaWdodDpkb3VibGU8L3RleHQ+JiN4YTsgICAgPC9nPiYjeGE7ICAgICYjeGE7ICAgIDxnIHRyYW5zZm9ybT0idHJhbnNsYXRlKC00MTAuODg2NjQsMTE2LjE4OTk5KSIgY2xhc3M9Im5vZGUiIGlkPSJub2RlOCI+JiN4YTsgICAgICA8dGl0bGUgaWQ9InRpdGxlMzciPlN3ZXJ2ZURyaXZlS2luZW1hdGljczwvdGl0bGU+JiN4YTsgICAgICA8cG9seWdvbiBpZD0icG9seWdvbjM3IiBwb2ludHM9IjY3MC41LC0zNi41IDgxMy41LC0zNi41IDgxMy41LC0wLjUgNjcwLjUsLTAuNSIgc3Ryb2tlPSIjMDAwMDAwIiBmaWxsPSIjZjJmMmYyIi8+JiN4YTsgICAgICA8dGV4dCBpZD0idGV4dDM4IiBmb250LXNpemU9IjhweCIgZm9udC1mYW1pbHk9IidCaXRzdHJlYW0gVmVyYSBTYW5zJyIgeT0iLTI1LjYiIHg9Ijc0MiIgdGV4dC1hbmNob3I9Im1pZGRsZSI+U3dlcnZlRHJpdmVLaW5lbWF0aWNzPC90ZXh0PiYjeGE7ICAgICAgPHBvbHlsaW5lIGlkPSJwb2x5bGluZTM4IiBwb2ludHM9IjY3MC41LC0xOC41IDgxMy41LC0xOC41IiBzdHJva2U9IiMwMDAwMDAiIGZpbGw9Im5vbmUiLz4mI3hhOyAgICAgIDx0ZXh0IGlkPSJ0ZXh0MzkiIGZvbnQtc2l6ZT0iOHB4IiBmb250LWZhbWlseT0iJ0JpdHN0cmVhbSBWZXJhIFNhbnMnIiB5PSItNy41OTk5OTk5IiB4PSI3NDIiIHRleHQtYW5jaG9yPSJtaWRkbGUiPisgbW9kdWxlczpUcmFuc2xhdGlvbjJkPC90ZXh0PiYjeGE7ICAgIDwvZz4mI3hhOyAgICAmI3hhOyAgICA8ZyB0cmFuc2Zvcm09InRyYW5zbGF0ZSgtMTE0MC44NDU3LDQwNS45NzI2KSIgY2xhc3M9Im5vZGUiIGlkPSJub2RlOSI+JiN4YTsgICAgICA8dGl0bGUgaWQ9InRpdGxlMzkiPlN3ZXJ2ZU1vZHVsZVBvc2l0aW9uPC90aXRsZT4mI3hhOyAgICAgIDxwb2x5Z29uIGlkPSJwb2x5Z29uMzkiIHBvaW50cz0iMTMzMS41LC0xNTUuNSAxMTk2LjUsLTE1NS41IDExOTYuNSwtMTk4LjUgMTMzMS41LC0xOTguNSIgc3Ryb2tlPSIjMDAwMDAwIiBmaWxsPSIjZjJmMmYyIi8+JiN4YTsgICAgICA8dGV4dCBpZD0idGV4dDQwIiBmb250LXNpemU9IjhweCIgZm9udC1mYW1pbHk9IidCaXRzdHJlYW0gVmVyYSBTYW5zJyIgeT0iLTE4OC4xMDAwMSIgeD0iMTI2NCIgdGV4dC1hbmNob3I9Im1pZGRsZSI+U3dlcnZlTW9kdWxlUG9zaXRpb248L3RleHQ+JiN4YTsgICAgICA8cG9seWxpbmUgaWQ9InBvbHlsaW5lNDAiIHBvaW50cz0iMTE5Ni41LC0xODEuNSAxMzMxLjUsLTE4MS41IiBzdHJva2U9IiMwMDAwMDAiIGZpbGw9Im5vbmUiLz4mI3hhOyAgICAgIDx0ZXh0IGlkPSJ0ZXh0NDEiIGZvbnQtc2l6ZT0iOHB4IiBmb250LWZhbWlseT0iJ0JpdHN0cmVhbSBWZXJhIFNhbnMnIiB5PSItMTcxLjEwMDAxIiB4PSIxMjY0IiB0ZXh0LWFuY2hvcj0ibWlkZGxlIj4rIGRpc3RhbmNlOmRvdWJsZTwvdGV4dD4mI3hhOyAgICAgIDx0ZXh0IGlkPSJ0ZXh0NDIiIGZvbnQtc2l6ZT0iOHB4IiBmb250LWZhbWlseT0iJ0JpdHN0cmVhbSBWZXJhIFNhbnMnIiB5PSItMTYyLjEwMDAxIiB4PSIxMjY0IiB0ZXh0LWFuY2hvcj0ibWlkZGxlIj4rIGFuZ2xlOlJvdGF0aW9uMmQ8L3RleHQ+JiN4YTsgICAgPC9nPiYjeGE7ICAgICYjeGE7ICAgIDxnIHRyYW5zZm9ybT0idHJhbnNsYXRlKC0xMTQwLjg0NTcsNDA1Ljk3MjYpIiBjbGFzcz0ibm9kZSIgaWQ9Im5vZGUxMiI+JiN4YTsgICAgICA8dGl0bGUgaWQ9InRpdGxlNDIiPlJvdGF0aW9uMmQ8L3RpdGxlPiYjeGE7ICAgICAgPHBvbHlnb24gaWQ9InBvbHlnb240MiIgcG9pbnRzPSIxMzg0LC03My41IDEyOTIsLTczLjUgMTI5MiwtMTA5LjUgMTM4NCwtMTA5LjUiIHN0cm9rZT0iIzAwMDAwMCIgZmlsbD0iI2YyZjJmMiIvPiYjeGE7ICAgICAgPHRleHQgaWQ9InRleHQ0MyIgZm9udC1zaXplPSI4cHgiIGZvbnQtZmFtaWx5PSInQml0c3RyZWFtIFZlcmEgU2FucyciIHk9Ii04OS41OTk5OTgiIHg9IjEzMzgiIHRleHQtYW5jaG9yPSJtaWRkbGUiPlJvdGF0aW9uMmQ8L3RleHQ+JiN4YTsgICAgPC9nPiYjeGE7ICAgICYjeGE7ICAgIDxnIHRyYW5zZm9ybT0idHJhbnNsYXRlKC0xMTQwLjg0NTcsNDA1Ljk3MjYpIiBjbGFzcz0iZWRnZSIgaWQ9ImVkZ2U2Ij4mI3hhOyAgICAgIDx0aXRsZSBpZD0idGl0bGU0MyI+U3dlcnZlTW9kdWxlUG9zaXRpb24tJmd0O1JvdGF0aW9uMmQ8L3RpdGxlPiYjeGE7ICAgICAgPHBhdGggaWQ9InBhdGg0MyIgZD0ibSAxMjgxLjkxLC0xNTUuNzkgYyAxMi41OCwxNC4xOSAyOS4yMSwzMi45NSA0MS4wOCw0Ni4zNiIgc3Ryb2tlPSIjMDAwMDAwIiBmaWxsPSJub25lIi8+JiN4YTsgICAgICA8dGV4dCBpZD0idGV4dDQ0IiBmb250LXNpemU9IjhweCIgZm9udC1mYW1pbHk9IidCaXRzdHJlYW0gVmVyYSBTYW5zJyIgeT0iLTExMi4wMyIgeD0iMTMyMC40OSIgdGV4dC1hbmNob3I9Im1pZGRsZSI+MTwvdGV4dD4mI3hhOyAgICAgIDx0ZXh0IGlkPSJ0ZXh0NDUiIGZvbnQtc2l6ZT0iOHB4IiBmb250LWZhbWlseT0iJ0JpdHN0cmVhbSBWZXJhIFNhbnMnIiB5PSItMTQ5LjM5IiB4PSIxMjc5LjQxIiB0ZXh0LWFuY2hvcj0ibWlkZGxlIj4xPC90ZXh0PiYjeGE7ICAgIDwvZz4mI3hhOyAgICAmI3hhOyAgICA8ZyB0cmFuc2Zvcm09InRyYW5zbGF0ZSgtMTE0MC44NDU3LDQwNS45NzI2KSIgY2xhc3M9Im5vZGUiIGlkPSJub2RlMTAiPiYjeGE7ICAgICAgPHRpdGxlIGlkPSJ0aXRsZTQ1Ij5Td2VydmVNb2R1bGVTdGF0ZTwvdGl0bGU+JiN4YTsgICAgICA8cG9seWdvbiBpZD0icG9seWdvbjQ1IiBwb2ludHM9IjE0NzQuNSwtMTU1LjUgMTM0OS41LC0xNTUuNSAxMzQ5LjUsLTE5OC41IDE0NzQuNSwtMTk4LjUiIHN0cm9rZT0iIzAwMDAwMCIgZmlsbD0iI2YyZjJmMiIvPiYjeGE7ICAgICAgPHRleHQgaWQ9InRleHQ0NiIgZm9udC1zaXplPSI4cHgiIGZvbnQtZmFtaWx5PSInQml0c3RyZWFtIFZlcmEgU2FucyciIHk9Ii0xODguMTAwMDEiIHg9IjE0MTIiIHRleHQtYW5jaG9yPSJtaWRkbGUiPlN3ZXJ2ZU1vZHVsZVN0YXRlPC90ZXh0PiYjeGE7ICAgICAgPHBvbHlsaW5lIGlkPSJwb2x5bGluZTQ2IiBwb2ludHM9IjEzNDkuNSwtMTgxLjUgMTQ3NC41LC0xODEuNSIgc3Ryb2tlPSIjMDAwMDAwIiBmaWxsPSJub25lIi8+JiN4YTsgICAgICA8dGV4dCBpZD0idGV4dDQ3IiBmb250LXNpemU9IjhweCIgZm9udC1mYW1pbHk9IidCaXRzdHJlYW0gVmVyYSBTYW5zJyIgeT0iLTE3MS4xMDAwMSIgeD0iMTQxMiIgdGV4dC1hbmNob3I9Im1pZGRsZSI+KyBzcGVlZDpkb3VibGU8L3RleHQ+JiN4YTsgICAgICA8dGV4dCBpZD0idGV4dDQ4IiBmb250LXNpemU9IjhweCIgZm9udC1mYW1pbHk9IidCaXRzdHJlYW0gVmVyYSBTYW5zJyIgeT0iLTE2Mi4xMDAwMSIgeD0iMTQxMiIgdGV4dC1hbmNob3I9Im1pZGRsZSI+KyBhbmdsZTpSb3RhdGlvbjJkPC90ZXh0PiYjeGE7ICAgIDwvZz4mI3hhOyAgICAmI3hhOyAgICA8ZyB0cmFuc2Zvcm09InRyYW5zbGF0ZSgtMTE0MC44NDU3LDQwNS45NzI2KSIgY2xhc3M9ImVkZ2UiIGlkPSJlZGdlNyI+JiN4YTsgICAgICA8dGl0bGUgaWQ9InRpdGxlNDgiPlN3ZXJ2ZU1vZHVsZVN0YXRlLSZndDtSb3RhdGlvbjJkPC90aXRsZT4mI3hhOyAgICAgIDxwYXRoIGlkPSJwYXRoNDgiIGQ9Im0gMTM5NC4wOSwtMTU1Ljc5IGMgLTEyLjU4LDE0LjE5IC0yOS4yMSwzMi45NSAtNDEuMDgsNDYuMzYiIHN0cm9rZT0iIzAwMDAwMCIgZmlsbD0ibm9uZSIvPiYjeGE7ICAgICAgPHRleHQgaWQ9InRleHQ0OSIgZm9udC1zaXplPSI4cHgiIGZvbnQtZmFtaWx5PSInQml0c3RyZWFtIFZlcmEgU2FucyciIHk9Ii0xMTIuMDMiIHg9IjEzNTAuNTEiIHRleHQtYW5jaG9yPSJtaWRkbGUiPjE8L3RleHQ+JiN4YTsgICAgICA8dGV4dCBpZD0idGV4dDUwIiBmb250LXNpemU9IjhweCIgZm9udC1mYW1pbHk9IidCaXRzdHJlYW0gVmVyYSBTYW5zJyIgeT0iLTE0OS4zOSIgeD0iMTM5MS41OSIgdGV4dC1hbmNob3I9Im1pZGRsZSI+MTwvdGV4dD4mI3hhOyAgICA8L2c+JiN4YTsgICAgJiN4YTsgICAgPGcgdHJhbnNmb3JtPSJtYXRyaXgoMS4wMzY4MjI0LC0wLjYwMjEyNTg0LDAuNTY4MjY3NTMsMS4wOTg1OTgsLTQ4OC43NDc3MSw1NjYuNDIxNjEpIiBjbGFzcz0iZWRnZSIgaWQ9ImVkZ2U1Ij4mI3hhOyAgICAgIDx0aXRsZSBpZD0idGl0bGU1MCI+VHJhbnNsYXRpb24yZC0mZ3Q7U3dlcnZlRHJpdmVLaW5lbWF0aWNzPC90aXRsZT4mI3hhOyAgICAgIDxwYXRoIGlkPSJwYXRoNTAiIGQ9Im0gNzQyLC03My42NyBjIDAsNy4zNCAwLDE2LjE2IDAsMjQuNTQiIHN0cm9rZT0iIzAwMDAwMCIgZmlsbD0ibm9uZSIvPiYjeGE7ICAgICAgPHBvbHlnb24gaWQ9InBvbHlnb241MCIgcG9pbnRzPSI3NDIsLTM3LjExIDc0NiwtNDMuMTEgNzQyLC00OS4xMSA3MzgsLTQzLjExIiBzdHJva2U9IiMwMDAwMDAiIGZpbGw9Im5vbmUiLz4mI3hhOyAgICAgIDx0ZXh0IGlkPSJ0ZXh0NTEiIGZvbnQtc2l6ZT0iOHB4IiBmb250LWZhbWlseT0iJ0JpdHN0cmVhbSBWZXJhIFNhbnMnIiB5PSItNDYuNzQwMjQyIiB4PSI3MzYuNDE3MTgiIHRleHQtYW5jaG9yPSJtaWRkbGUiPjE8L3RleHQ+JiN4YTsgICAgICA8dGV4dCBpZD0idGV4dDUyIiBmb250LXNpemU9IjhweCIgZm9udC1mYW1pbHk9IidCaXRzdHJlYW0gVmVyYSBTYW5zJyIgeT0iLTY2LjM0MDUzOCIgeD0iNzMxLjgxNjA0IiB0ZXh0LWFuY2hvcj0ibWlkZGxlIj4wLi4qPC90ZXh0PiYjeGE7ICAgIDwvZz4mI3hhOyAgPC9nPiYjeGE7PC9zdmc+;clipPath=inset(0% 50.67% 0% 0%);" vertex="1" parent="WIyWlLk6GJQsqaUBKTNV-1">
          <mxGeometry width="1103.27" height="820" as="geometry" />
        </mxCell>
        <mxCell id="N2CqPFAMYml7u8-fk6KA-0" value="" style="shape=image;verticalLabelPosition=bottom;labelBackgroundColor=default;verticalAlign=top;aspect=fixed;imageAspect=0;editableCssRules=.*;image=data:image/svg+xml,PHN2ZyB4bWxuczp4bGluaz0iaHR0cDovL3d3dy53My5vcmcvMTk5OS94bGluayIgeG1sbnM9Imh0dHA6Ly93d3cudzMub3JnLzIwMDAvc3ZnIiB2aWV3Qm94PSIwIDAgNzk1LjUgNzkiIGhlaWdodD0iNzkiIHdpZHRoPSI3OTYiPiYjeGE7PGcgdHJhbnNmb3JtPSJzY2FsZSgxIDEpIHJvdGF0ZSgwKSB0cmFuc2xhdGUoNCA3NSkiIGNsYXNzPSJncmFwaCIgaWQ9ImdyYXBoMCI+JiN4YTs8dGl0bGU+IFVNTCBjbGFzcyBkaWFncmFtPC90aXRsZT4mI3hhOzxwb2x5Z29uIHBvaW50cz0iLTQsNCAtNCwtNzUgNzkxLjUsLTc1IDc5MS41LDQgLTQsNCIgc3Ryb2tlPSJub25lIiBmaWxsLW9wYWNpdHk9IjAiIGZpbGw9IndoaXRlIi8+JiN4YTsmI3hhOzxnIGNsYXNzPSJub2RlIiBpZD0ibm9kZTEiPiYjeGE7PHRpdGxlPkFybUZlZWRmb3J3YXJkPC90aXRsZT4mI3hhOzxwb2x5Z29uIHBvaW50cz0iMCwtMC41IDAsLTcwLjUgMTEzLC03MC41IDExMywtMC41IDAsLTAuNSIgc3Ryb2tlPSJibGFjayIgZmlsbD0iI2YyZjJmMiIvPiYjeGE7PHRleHQgZm9udC1zaXplPSI4LjAwIiBmb250LWZhbWlseT0iQml0c3RyZWFtIFZlcmEgU2FucyIgeT0iLTYwLjEiIHg9IjU2LjUiIHRleHQtYW5jaG9yPSJtaWRkbGUiPkFybUZlZWRmb3J3YXJkPC90ZXh0PiYjeGE7PHBvbHlsaW5lIHBvaW50cz0iMCwtNTMuNSAxMTMsLTUzLjUiIHN0cm9rZT0iYmxhY2siIGZpbGw9Im5vbmUiLz4mI3hhOzx0ZXh0IGZvbnQtc2l6ZT0iOC4wMCIgZm9udC1mYW1pbHk9IkJpdHN0cmVhbSBWZXJhIFNhbnMiIHk9Ii00My4xIiB4PSI1Ni41IiB0ZXh0LWFuY2hvcj0ibWlkZGxlIj4rIGtzOmRvdWJsZTwvdGV4dD4mI3hhOzx0ZXh0IGZvbnQtc2l6ZT0iOC4wMCIgZm9udC1mYW1pbHk9IkJpdHN0cmVhbSBWZXJhIFNhbnMiIHk9Ii0zNC4xIiB4PSI1Ni41IiB0ZXh0LWFuY2hvcj0ibWlkZGxlIj4rIGtnOmRvdWJsZTwvdGV4dD4mI3hhOzx0ZXh0IGZvbnQtc2l6ZT0iOC4wMCIgZm9udC1mYW1pbHk9IkJpdHN0cmVhbSBWZXJhIFNhbnMiIHk9Ii0yNS4xIiB4PSI1Ni41IiB0ZXh0LWFuY2hvcj0ibWlkZGxlIj4rIGt2OmRvdWJsZTwvdGV4dD4mI3hhOzx0ZXh0IGZvbnQtc2l6ZT0iOC4wMCIgZm9udC1mYW1pbHk9IkJpdHN0cmVhbSBWZXJhIFNhbnMiIHk9Ii0xNi4xIiB4PSI1Ni41IiB0ZXh0LWFuY2hvcj0ibWlkZGxlIj4rIGthOmRvdWJsZTwvdGV4dD4mI3hhOzx0ZXh0IGZvbnQtc2l6ZT0iOC4wMCIgZm9udC1mYW1pbHk9IkJpdHN0cmVhbSBWZXJhIFNhbnMiIHk9Ii03LjEiIHg9IjU2LjUiIHRleHQtYW5jaG9yPSJtaWRkbGUiPisgZHQ6ZG91YmxlPC90ZXh0PiYjeGE7PC9nPiYjeGE7JiN4YTs8ZyBjbGFzcz0ibm9kZSIgaWQ9Im5vZGUyIj4mI3hhOzx0aXRsZT5EaWZmZXJlbnRpYWxEcml2ZUZlZWRmb3J3YXJkPC90aXRsZT4mI3hhOzxwb2x5Z29uIHBvaW50cz0iMTMxLjUsLTUgMTMxLjUsLTY2IDI5MS41LC02NiAyOTEuNSwtNSAxMzEuNSwtNSIgc3Ryb2tlPSJibGFjayIgZmlsbD0iI2YyZjJmMiIvPiYjeGE7PHRleHQgZm9udC1zaXplPSI4LjAwIiBmb250LWZhbWlseT0iQml0c3RyZWFtIFZlcmEgU2FucyIgeT0iLTU1LjYiIHg9IjIxMS41IiB0ZXh0LWFuY2hvcj0ibWlkZGxlIj5EaWZmZXJlbnRpYWxEcml2ZUZlZWRmb3J3YXJkPC90ZXh0PiYjeGE7PHBvbHlsaW5lIHBvaW50cz0iMTMxLjUsLTQ5IDI5MS41LC00OSIgc3Ryb2tlPSJibGFjayIgZmlsbD0ibm9uZSIvPiYjeGE7PHRleHQgZm9udC1zaXplPSI4LjAwIiBmb250LWZhbWlseT0iQml0c3RyZWFtIFZlcmEgU2FucyIgeT0iLTM4LjYiIHg9IjIxMS41IiB0ZXh0LWFuY2hvcj0ibWlkZGxlIj4rIGt2X2xpbmVhcjpkb3VibGU8L3RleHQ+JiN4YTs8dGV4dCBmb250LXNpemU9IjguMDAiIGZvbnQtZmFtaWx5PSJCaXRzdHJlYW0gVmVyYSBTYW5zIiB5PSItMjkuNiIgeD0iMjExLjUiIHRleHQtYW5jaG9yPSJtaWRkbGUiPisga2FfbGluZWFyOmRvdWJsZTwvdGV4dD4mI3hhOzx0ZXh0IGZvbnQtc2l6ZT0iOC4wMCIgZm9udC1mYW1pbHk9IkJpdHN0cmVhbSBWZXJhIFNhbnMiIHk9Ii0yMC42IiB4PSIyMTEuNSIgdGV4dC1hbmNob3I9Im1pZGRsZSI+KyBrdl9hbmd1bGFyOmRvdWJsZTwvdGV4dD4mI3hhOzx0ZXh0IGZvbnQtc2l6ZT0iOC4wMCIgZm9udC1mYW1pbHk9IkJpdHN0cmVhbSBWZXJhIFNhbnMiIHk9Ii0xMS42IiB4PSIyMTEuNSIgdGV4dC1hbmNob3I9Im1pZGRsZSI+KyBrYV9hbmd1bGFyOmRvdWJsZTwvdGV4dD4mI3hhOzwvZz4mI3hhOyYjeGE7PGcgY2xhc3M9Im5vZGUiIGlkPSJub2RlMyI+JiN4YTs8dGl0bGU+RWxldmF0b3JGZWVkZm9yd2FyZDwvdGl0bGU+JiN4YTs8cG9seWdvbiBwb2ludHM9IjMwOS41LC0wLjUgMzA5LjUsLTcwLjUgNDM3LjUsLTcwLjUgNDM3LjUsLTAuNSAzMDkuNSwtMC41IiBzdHJva2U9ImJsYWNrIiBmaWxsPSIjZjJmMmYyIi8+JiN4YTs8dGV4dCBmb250LXNpemU9IjguMDAiIGZvbnQtZmFtaWx5PSJCaXRzdHJlYW0gVmVyYSBTYW5zIiB5PSItNjAuMSIgeD0iMzczLjUiIHRleHQtYW5jaG9yPSJtaWRkbGUiPkVsZXZhdG9yRmVlZGZvcndhcmQ8L3RleHQ+JiN4YTs8cG9seWxpbmUgcG9pbnRzPSIzMDkuNSwtNTMuNSA0MzcuNSwtNTMuNSIgc3Ryb2tlPSJibGFjayIgZmlsbD0ibm9uZSIvPiYjeGE7PHRleHQgZm9udC1zaXplPSI4LjAwIiBmb250LWZhbWlseT0iQml0c3RyZWFtIFZlcmEgU2FucyIgeT0iLTQzLjEiIHg9IjM3My41IiB0ZXh0LWFuY2hvcj0ibWlkZGxlIj4rIGtzOmRvdWJsZTwvdGV4dD4mI3hhOzx0ZXh0IGZvbnQtc2l6ZT0iOC4wMCIgZm9udC1mYW1pbHk9IkJpdHN0cmVhbSBWZXJhIFNhbnMiIHk9Ii0zNC4xIiB4PSIzNzMuNSIgdGV4dC1hbmNob3I9Im1pZGRsZSI+KyBrZzpkb3VibGU8L3RleHQ+JiN4YTs8dGV4dCBmb250LXNpemU9IjguMDAiIGZvbnQtZmFtaWx5PSJCaXRzdHJlYW0gVmVyYSBTYW5zIiB5PSItMjUuMSIgeD0iMzczLjUiIHRleHQtYW5jaG9yPSJtaWRkbGUiPisga3Y6ZG91YmxlPC90ZXh0PiYjeGE7PHRleHQgZm9udC1zaXplPSI4LjAwIiBmb250LWZhbWlseT0iQml0c3RyZWFtIFZlcmEgU2FucyIgeT0iLTE2LjEiIHg9IjM3My41IiB0ZXh0LWFuY2hvcj0ibWlkZGxlIj4rIGthOmRvdWJsZTwvdGV4dD4mI3hhOzx0ZXh0IGZvbnQtc2l6ZT0iOC4wMCIgZm9udC1mYW1pbHk9IkJpdHN0cmVhbSBWZXJhIFNhbnMiIHk9Ii03LjEiIHg9IjM3My41IiB0ZXh0LWFuY2hvcj0ibWlkZGxlIj4rIGR0OmRvdWJsZTwvdGV4dD4mI3hhOzwvZz4mI3hhOyYjeGE7PGcgY2xhc3M9Im5vZGUiIGlkPSJub2RlNCI+JiN4YTs8dGl0bGU+U2ltcGxlTW90b3JGZWVkZm9yd2FyZDwvdGl0bGU+JiN4YTs8cG9seWdvbiBwb2ludHM9IjQ1NS41LC01IDQ1NS41LC02NiA2MDEuNSwtNjYgNjAxLjUsLTUgNDU1LjUsLTUiIHN0cm9rZT0iYmxhY2siIGZpbGw9IiNmMmYyZjIiLz4mI3hhOzx0ZXh0IGZvbnQtc2l6ZT0iOC4wMCIgZm9udC1mYW1pbHk9IkJpdHN0cmVhbSBWZXJhIFNhbnMiIHk9Ii01NS42IiB4PSI1MjguNSIgdGV4dC1hbmNob3I9Im1pZGRsZSI+U2ltcGxlTW90b3JGZWVkZm9yd2FyZDwvdGV4dD4mI3hhOzxwb2x5bGluZSBwb2ludHM9IjQ1NS41LC00OSA2MDEuNSwtNDkiIHN0cm9rZT0iYmxhY2siIGZpbGw9Im5vbmUiLz4mI3hhOzx0ZXh0IGZvbnQtc2l6ZT0iOC4wMCIgZm9udC1mYW1pbHk9IkJpdHN0cmVhbSBWZXJhIFNhbnMiIHk9Ii0zOC42IiB4PSI1MjguNSIgdGV4dC1hbmNob3I9Im1pZGRsZSI+KyBrczpkb3VibGU8L3RleHQ+JiN4YTs8dGV4dCBmb250LXNpemU9IjguMDAiIGZvbnQtZmFtaWx5PSJCaXRzdHJlYW0gVmVyYSBTYW5zIiB5PSItMjkuNiIgeD0iNTI4LjUiIHRleHQtYW5jaG9yPSJtaWRkbGUiPisga3Y6ZG91YmxlPC90ZXh0PiYjeGE7PHRleHQgZm9udC1zaXplPSI4LjAwIiBmb250LWZhbWlseT0iQml0c3RyZWFtIFZlcmEgU2FucyIgeT0iLTIwLjYiIHg9IjUyOC41IiB0ZXh0LWFuY2hvcj0ibWlkZGxlIj4rIGthOmRvdWJsZTwvdGV4dD4mI3hhOzx0ZXh0IGZvbnQtc2l6ZT0iOC4wMCIgZm9udC1mYW1pbHk9IkJpdHN0cmVhbSBWZXJhIFNhbnMiIHk9Ii0xMS42IiB4PSI1MjguNSIgdGV4dC1hbmNob3I9Im1pZGRsZSI+KyBkdDpkb3VibGU8L3RleHQ+JiN4YTs8L2c+JiN4YTsmI3hhOzxnIGNsYXNzPSJub2RlIiBpZD0ibm9kZTUiPiYjeGE7PHRpdGxlPkRpZmZlcmVudGlhbERyaXZlV2hlZWxWb2x0YWdlczwvdGl0bGU+JiN4YTs8cG9seWdvbiBwb2ludHM9IjYxOS41LC0xNCA2MTkuNSwtNTcgNzg3LjUsLTU3IDc4Ny41LC0xNCA2MTkuNSwtMTQiIHN0cm9rZT0iYmxhY2siIGZpbGw9IiNmMmYyZjIiLz4mI3hhOzx0ZXh0IGZvbnQtc2l6ZT0iOC4wMCIgZm9udC1mYW1pbHk9IkJpdHN0cmVhbSBWZXJhIFNhbnMiIHk9Ii00Ni42IiB4PSI3MDMuNSIgdGV4dC1hbmNob3I9Im1pZGRsZSI+RGlmZmVyZW50aWFsRHJpdmVXaGVlbFZvbHRhZ2VzPC90ZXh0PiYjeGE7PHBvbHlsaW5lIHBvaW50cz0iNjE5LjUsLTQwIDc4Ny41LC00MCIgc3Ryb2tlPSJibGFjayIgZmlsbD0ibm9uZSIvPiYjeGE7PHRleHQgZm9udC1zaXplPSI4LjAwIiBmb250LWZhbWlseT0iQml0c3RyZWFtIFZlcmEgU2FucyIgeT0iLTI5LjYiIHg9IjcwMy41IiB0ZXh0LWFuY2hvcj0ibWlkZGxlIj4rIGxlZnQ6ZG91YmxlPC90ZXh0PiYjeGE7PHRleHQgZm9udC1zaXplPSI4LjAwIiBmb250LWZhbWlseT0iQml0c3RyZWFtIFZlcmEgU2FucyIgeT0iLTIwLjYiIHg9IjcwMy41IiB0ZXh0LWFuY2hvcj0ibWlkZGxlIj4rIHJpZ2h0OmRvdWJsZTwvdGV4dD4mI3hhOzwvZz4mI3hhOzwvZz4mI3hhOzwvc3ZnPg==;" vertex="1" parent="WIyWlLk6GJQsqaUBKTNV-1">
          <mxGeometry x="1120" y="722.12" width="1064.27" height="105.62" as="geometry" />
        </mxCell>
        <mxCell id="N2CqPFAMYml7u8-fk6KA-1" value="" style="shape=image;verticalLabelPosition=bottom;labelBackgroundColor=default;verticalAlign=top;aspect=fixed;imageAspect=0;editableCssRules=.*;image=data:image/svg+xml,PHN2ZyB4bWxuczp4bGluaz0iaHR0cDovL3d3dy53My5vcmcvMTk5OS94bGluayIgeG1sbnM9Imh0dHA6Ly93d3cudzMub3JnLzIwMDAvc3ZnIiB2aWV3Qm94PSIwIDAgMTEwIDE3MCIgaGVpZ2h0PSIxNzAiIHdpZHRoPSIxMTAiPiYjeGE7PGcgdHJhbnNmb3JtPSJzY2FsZSgxIDEpIHJvdGF0ZSgwKSB0cmFuc2xhdGUoNCAxNjYpIiBjbGFzcz0iZ3JhcGgiIGlkPSJncmFwaDAiPiYjeGE7PHRpdGxlPiBVTUwgY2xhc3MgZGlhZ3JhbTwvdGl0bGU+JiN4YTs8cG9seWdvbiBwb2ludHM9Ii00LDQgLTQsLTE2NiAxMDYsLTE2NiAxMDYsNCAtNCw0IiBzdHJva2U9Im5vbmUiIGZpbGwtb3BhY2l0eT0iMCIgZmlsbD0id2hpdGUiLz4mI3hhOyYjeGE7PGcgY2xhc3M9Im5vZGUiIGlkPSJub2RlMSI+JiN4YTs8dGl0bGU+TGluZWFyU3lzdGVtPC90aXRsZT4mI3hhOzxwb2x5Z29uIHBvaW50cz0iMCwtNzMuNSAwLC0xNjEuNSAxMDIsLTE2MS41IDEwMiwtNzMuNSAwLC03My41IiBzdHJva2U9ImJsYWNrIiBmaWxsPSIjZjJmMmYyIi8+JiN4YTs8dGV4dCBmb250LXNpemU9IjguMDAiIGZvbnQtZmFtaWx5PSJCaXRzdHJlYW0gVmVyYSBTYW5zIiB5PSItMTUxLjEiIHg9IjUxIiB0ZXh0LWFuY2hvcj0ibWlkZGxlIj5MaW5lYXJTeXN0ZW08L3RleHQ+JiN4YTs8cG9seWxpbmUgcG9pbnRzPSIwLC0xNDQuNSAxMDIsLTE0NC41IiBzdHJva2U9ImJsYWNrIiBmaWxsPSJub25lIi8+JiN4YTs8dGV4dCBmb250LXNpemU9IjguMDAiIGZvbnQtZmFtaWx5PSJCaXRzdHJlYW0gVmVyYSBTYW5zIiB5PSItMTM0LjEiIHg9IjUxIiB0ZXh0LWFuY2hvcj0ibWlkZGxlIj4rIG51bV9zdGF0ZXM6dWludDMyPC90ZXh0PiYjeGE7PHRleHQgZm9udC1zaXplPSI4LjAwIiBmb250LWZhbWlseT0iQml0c3RyZWFtIFZlcmEgU2FucyIgeT0iLTEyNS4xIiB4PSI1MSIgdGV4dC1hbmNob3I9Im1pZGRsZSI+KyBudW1faW5wdXRzOnVpbnQzMjwvdGV4dD4mI3hhOzx0ZXh0IGZvbnQtc2l6ZT0iOC4wMCIgZm9udC1mYW1pbHk9IkJpdHN0cmVhbSBWZXJhIFNhbnMiIHk9Ii0xMTYuMSIgeD0iNTEiIHRleHQtYW5jaG9yPSJtaWRkbGUiPisgbnVtX291dHB1dHM6dWludDMyPC90ZXh0PiYjeGE7PHRleHQgZm9udC1zaXplPSI4LjAwIiBmb250LWZhbWlseT0iQml0c3RyZWFtIFZlcmEgU2FucyIgeT0iLTEwNy4xIiB4PSI1MSIgdGV4dC1hbmNob3I9Im1pZGRsZSI+KyBhOk1hdHJpeDwvdGV4dD4mI3hhOzx0ZXh0IGZvbnQtc2l6ZT0iOC4wMCIgZm9udC1mYW1pbHk9IkJpdHN0cmVhbSBWZXJhIFNhbnMiIHk9Ii05OC4xIiB4PSI1MSIgdGV4dC1hbmNob3I9Im1pZGRsZSI+KyBiOk1hdHJpeDwvdGV4dD4mI3hhOzx0ZXh0IGZvbnQtc2l6ZT0iOC4wMCIgZm9udC1mYW1pbHk9IkJpdHN0cmVhbSBWZXJhIFNhbnMiIHk9Ii04OS4xIiB4PSI1MSIgdGV4dC1hbmNob3I9Im1pZGRsZSI+KyBjOk1hdHJpeDwvdGV4dD4mI3hhOzx0ZXh0IGZvbnQtc2l6ZT0iOC4wMCIgZm9udC1mYW1pbHk9IkJpdHN0cmVhbSBWZXJhIFNhbnMiIHk9Ii04MC4xIiB4PSI1MSIgdGV4dC1hbmNob3I9Im1pZGRsZSI+KyBkOk1hdHJpeDwvdGV4dD4mI3hhOzwvZz4mI3hhOyYjeGE7PGcgY2xhc3M9Im5vZGUiIGlkPSJub2RlMiI+JiN4YTs8dGl0bGU+TWF0cml4PC90aXRsZT4mI3hhOzxwb2x5Z29uIHBvaW50cz0iMTQsLTAuNSAxNCwtMzYuNSA4OCwtMzYuNSA4OCwtMC41IDE0LC0wLjUiIHN0cm9rZT0iYmxhY2siIGZpbGw9IiNmMmYyZjIiLz4mI3hhOzx0ZXh0IGZvbnQtc2l6ZT0iOC4wMCIgZm9udC1mYW1pbHk9IkJpdHN0cmVhbSBWZXJhIFNhbnMiIHk9Ii0xNi42IiB4PSI1MSIgdGV4dC1hbmNob3I9Im1pZGRsZSI+TWF0cml4PC90ZXh0PiYjeGE7PC9nPiYjeGE7JiN4YTs8ZyBjbGFzcz0iZWRnZSIgaWQ9ImVkZ2UxIj4mI3hhOzx0aXRsZT5MaW5lYXJTeXN0ZW0tJmd0O01hdHJpeDwvdGl0bGU+JiN4YTs8cGF0aCBkPSJNMzAuODcsLTczLjY3QzMwLjMsLTYwLjQ4IDMxLjc0LC00Ni43MSAzNS4yMSwtMzYuMzYiIHN0cm9rZT0iYmxhY2siIGZpbGw9Im5vbmUiLz4mI3hhOzx0ZXh0IGZvbnQtc2l6ZT0iOC4wMCIgZm9udC1mYW1pbHk9IkJpdHN0cmVhbSBWZXJhIFNhbnMiIHk9Ii0zOC45NiIgeD0iMzIuNzEiIHRleHQtYW5jaG9yPSJtaWRkbGUiPjE8L3RleHQ+JiN4YTs8dGV4dCBmb250LXNpemU9IjguMDAiIGZvbnQtZmFtaWx5PSJCaXRzdHJlYW0gVmVyYSBTYW5zIiB5PSItNjcuMjciIHg9IjI4LjM3IiB0ZXh0LWFuY2hvcj0ibWlkZGxlIj4xPC90ZXh0PiYjeGE7PC9nPiYjeGE7JiN4YTs8ZyBjbGFzcz0iZWRnZSIgaWQ9ImVkZ2UyIj4mI3hhOzx0aXRsZT5MaW5lYXJTeXN0ZW0tJmd0O01hdHJpeDwvdGl0bGU+JiN4YTs8cGF0aCBkPSJNNDQuMjksLTczLjY3QzQ0LjEsLTYwLjQ4IDQ0LjU4LC00Ni43MSA0NS43NCwtMzYuMzYiIHN0cm9rZT0iYmxhY2siIGZpbGw9Im5vbmUiLz4mI3hhOzx0ZXh0IGZvbnQtc2l6ZT0iOC4wMCIgZm9udC1mYW1pbHk9IkJpdHN0cmVhbSBWZXJhIFNhbnMiIHk9Ii0zOC45NiIgeD0iNDMuMjQiIHRleHQtYW5jaG9yPSJtaWRkbGUiPjE8L3RleHQ+JiN4YTs8dGV4dCBmb250LXNpemU9IjguMDAiIGZvbnQtZmFtaWx5PSJCaXRzdHJlYW0gVmVyYSBTYW5zIiB5PSItNjcuMjciIHg9IjQxLjc5IiB0ZXh0LWFuY2hvcj0ibWlkZGxlIj4xPC90ZXh0PiYjeGE7PC9nPiYjeGE7JiN4YTs8ZyBjbGFzcz0iZWRnZSIgaWQ9ImVkZ2UzIj4mI3hhOzx0aXRsZT5MaW5lYXJTeXN0ZW0tJmd0O01hdHJpeDwvdGl0bGU+JiN4YTs8cGF0aCBkPSJNNTcuNzEsLTczLjY3QzU3LjksLTYwLjQ4IDU3LjQyLC00Ni43MSA1Ni4yNiwtMzYuMzYiIHN0cm9rZT0iYmxhY2siIGZpbGw9Im5vbmUiLz4mI3hhOzx0ZXh0IGZvbnQtc2l6ZT0iOC4wMCIgZm9udC1mYW1pbHk9IkJpdHN0cmVhbSBWZXJhIFNhbnMiIHk9Ii0zOC45NiIgeD0iNTMuNzYiIHRleHQtYW5jaG9yPSJtaWRkbGUiPjE8L3RleHQ+JiN4YTs8dGV4dCBmb250LXNpemU9IjguMDAiIGZvbnQtZmFtaWx5PSJCaXRzdHJlYW0gVmVyYSBTYW5zIiB5PSItNjcuMjciIHg9IjU1LjIxIiB0ZXh0LWFuY2hvcj0ibWlkZGxlIj4xPC90ZXh0PiYjeGE7PC9nPiYjeGE7JiN4YTs8ZyBjbGFzcz0iZWRnZSIgaWQ9ImVkZ2U0Ij4mI3hhOzx0aXRsZT5MaW5lYXJTeXN0ZW0tJmd0O01hdHJpeDwvdGl0bGU+JiN4YTs8cGF0aCBkPSJNNzEuMTMsLTczLjY3QzcxLjcsLTYwLjQ4IDcwLjI2LC00Ni43MSA2Ni43OSwtMzYuMzYiIHN0cm9rZT0iYmxhY2siIGZpbGw9Im5vbmUiLz4mI3hhOzx0ZXh0IGZvbnQtc2l6ZT0iOC4wMCIgZm9udC1mYW1pbHk9IkJpdHN0cmVhbSBWZXJhIFNhbnMiIHk9Ii0zOC45NiIgeD0iNjQuMjkiIHRleHQtYW5jaG9yPSJtaWRkbGUiPjE8L3RleHQ+JiN4YTs8dGV4dCBmb250LXNpemU9IjguMDAiIGZvbnQtZmFtaWx5PSJCaXRzdHJlYW0gVmVyYSBTYW5zIiB5PSItNjcuMjciIHg9IjY4LjYzIiB0ZXh0LWFuY2hvcj0ibWlkZGxlIj4xPC90ZXh0PiYjeGE7PC9nPiYjeGE7PC9nPiYjeGE7PC9zdmc+;" vertex="1" parent="WIyWlLk6GJQsqaUBKTNV-1">
          <mxGeometry x="1170" y="380" width="155.3" height="240" as="geometry" />
        </mxCell>
        <mxCell id="N2CqPFAMYml7u8-fk6KA-2" value="" style="shape=image;verticalLabelPosition=bottom;labelBackgroundColor=default;verticalAlign=top;aspect=fixed;imageAspect=0;editableCssRules=.*;image=data:image/svg+xml,PHN2ZyB4bWxuczp4bGluaz0iaHR0cDovL3d3dy53My5vcmcvMTk5OS94bGluayIgeG1sbnM9Imh0dHA6Ly93d3cudzMub3JnLzIwMDAvc3ZnIiB2aWV3Qm94PSIwIDAgMTI0IDc5IiBoZWlnaHQ9Ijc5IiB3aWR0aD0iMTI0Ij4mI3hhOzxnIHRyYW5zZm9ybT0ic2NhbGUoMSAxKSByb3RhdGUoMCkgdHJhbnNsYXRlKDQgNzUpIiBjbGFzcz0iZ3JhcGgiIGlkPSJncmFwaDAiPiYjeGE7PHRpdGxlPiBVTUwgY2xhc3MgZGlhZ3JhbTwvdGl0bGU+JiN4YTs8cG9seWdvbiBwb2ludHM9Ii00LDQgLTQsLTc1IDEyMCwtNzUgMTIwLDQgLTQsNCIgc3Ryb2tlPSJub25lIiBmaWxsLW9wYWNpdHk9IjAiIGZpbGw9IndoaXRlIi8+JiN4YTsmI3hhOzxnIGNsYXNzPSJub2RlIiBpZD0ibm9kZTEiPiYjeGE7PHRpdGxlPkRDTW90b3I8L3RpdGxlPiYjeGE7PHBvbHlnb24gcG9pbnRzPSIwLC0wLjUgMCwtNzAuNSAxMTYsLTcwLjUgMTE2LC0wLjUgMCwtMC41IiBzdHJva2U9ImJsYWNrIiBmaWxsPSIjZjJmMmYyIi8+JiN4YTs8dGV4dCBmb250LXNpemU9IjguMDAiIGZvbnQtZmFtaWx5PSJCaXRzdHJlYW0gVmVyYSBTYW5zIiB5PSItNjAuMSIgeD0iNTgiIHRleHQtYW5jaG9yPSJtaWRkbGUiPkRDTW90b3I8L3RleHQ+JiN4YTs8cG9seWxpbmUgcG9pbnRzPSIwLC01My41IDExNiwtNTMuNSIgc3Ryb2tlPSJibGFjayIgZmlsbD0ibm9uZSIvPiYjeGE7PHRleHQgZm9udC1zaXplPSI4LjAwIiBmb250LWZhbWlseT0iQml0c3RyZWFtIFZlcmEgU2FucyIgeT0iLTQzLjEiIHg9IjU4IiB0ZXh0LWFuY2hvcj0ibWlkZGxlIj4rIG5vbWluYWxfdm9sdGFnZTpkb3VibGU8L3RleHQ+JiN4YTs8dGV4dCBmb250LXNpemU9IjguMDAiIGZvbnQtZmFtaWx5PSJCaXRzdHJlYW0gVmVyYSBTYW5zIiB5PSItMzQuMSIgeD0iNTgiIHRleHQtYW5jaG9yPSJtaWRkbGUiPisgc3RhbGxfdG9ycXVlOmRvdWJsZTwvdGV4dD4mI3hhOzx0ZXh0IGZvbnQtc2l6ZT0iOC4wMCIgZm9udC1mYW1pbHk9IkJpdHN0cmVhbSBWZXJhIFNhbnMiIHk9Ii0yNS4xIiB4PSI1OCIgdGV4dC1hbmNob3I9Im1pZGRsZSI+KyBzdGFsbF9jdXJyZW50OmRvdWJsZTwvdGV4dD4mI3hhOzx0ZXh0IGZvbnQtc2l6ZT0iOC4wMCIgZm9udC1mYW1pbHk9IkJpdHN0cmVhbSBWZXJhIFNhbnMiIHk9Ii0xNi4xIiB4PSI1OCIgdGV4dC1hbmNob3I9Im1pZGRsZSI+KyBmcmVlX2N1cnJlbnQ6ZG91YmxlPC90ZXh0PiYjeGE7PHRleHQgZm9udC1zaXplPSI4LjAwIiBmb250LWZhbWlseT0iQml0c3RyZWFtIFZlcmEgU2FucyIgeT0iLTcuMSIgeD0iNTgiIHRleHQtYW5jaG9yPSJtaWRkbGUiPisgZnJlZV9zcGVlZDpkb3VibGU8L3RleHQ+JiN4YTs8L2c+JiN4YTs8L2c+JiN4YTs8L3N2Zz4=;" vertex="1" parent="WIyWlLk6GJQsqaUBKTNV-1">
          <mxGeometry x="1430" y="530" width="186.79" height="119" as="geometry" />
        </mxCell>
        <mxCell id="N2CqPFAMYml7u8-fk6KA-3" value="" style="shape=image;verticalLabelPosition=bottom;labelBackgroundColor=default;verticalAlign=top;aspect=fixed;imageAspect=0;editableCssRules=.*;image=data:image/svg+xml,PHN2ZyB4bWxuczp4bGluaz0iaHR0cDovL3d3dy53My5vcmcvMTk5OS94bGluayIgeG1sbnM9Imh0dHA6Ly93d3cudzMub3JnLzIwMDAvc3ZnIiB2aWV3Qm94PSIwIDAgMTg4IDYxIiBoZWlnaHQ9IjYxIiB3aWR0aD0iMTg4Ij4mI3hhOzxnIHRyYW5zZm9ybT0ic2NhbGUoMSAxKSByb3RhdGUoMCkgdHJhbnNsYXRlKDQgNTcpIiBjbGFzcz0iZ3JhcGgiIGlkPSJncmFwaDAiPiYjeGE7PHRpdGxlPlByb3RvYnVmIFVNTCBjbGFzcyBkaWFncmFtPC90aXRsZT4mI3hhOzxwb2x5Z29uIHBvaW50cz0iLTQsNCAtNCwtNTcgMTg0LC01NyAxODQsNCAtNCw0IiBzdHJva2U9Im5vbmUiIGZpbGwtb3BhY2l0eT0iMCIgZmlsbD0id2hpdGUiLz4mI3hhOyYjeGE7PGcgY2xhc3M9Im5vZGUiIGlkPSJub2RlMSI+JiN4YTs8dGl0bGU+UHJvdG9idWZNYXRyaXg8L3RpdGxlPiYjeGE7PHBvbHlnb24gcG9pbnRzPSIwLC0wLjUgMCwtNTIuNSA4OSwtNTIuNSA4OSwtMC41IDAsLTAuNSIgc3Ryb2tlPSJibGFjayIgZmlsbD0iI2YyZjJmMiIvPiYjeGE7PHRleHQgZm9udC1zaXplPSI4LjAwIiBmb250LWZhbWlseT0iQml0c3RyZWFtIFZlcmEgU2FucyIgeT0iLTQyLjEiIHg9IjQ0LjUiIHRleHQtYW5jaG9yPSJtaWRkbGUiPlByb3RvYnVmTWF0cml4PC90ZXh0PiYjeGE7PHBvbHlsaW5lIHBvaW50cz0iMCwtMzUuNSA4OSwtMzUuNSIgc3Ryb2tlPSJibGFjayIgZmlsbD0ibm9uZSIvPiYjeGE7PHRleHQgZm9udC1zaXplPSI4LjAwIiBmb250LWZhbWlseT0iQml0c3RyZWFtIFZlcmEgU2FucyIgeT0iLTI1LjEiIHg9IjQ0LjUiIHRleHQtYW5jaG9yPSJtaWRkbGUiPisgbnVtX3Jvd3M6dWludDMyPC90ZXh0PiYjeGE7PHRleHQgZm9udC1zaXplPSI4LjAwIiBmb250LWZhbWlseT0iQml0c3RyZWFtIFZlcmEgU2FucyIgeT0iLTE2LjEiIHg9IjQ0LjUiIHRleHQtYW5jaG9yPSJtaWRkbGUiPisgbnVtX2NvbHM6dWludDMyPC90ZXh0PiYjeGE7PHRleHQgZm9udC1zaXplPSI4LjAwIiBmb250LWZhbWlseT0iQml0c3RyZWFtIFZlcmEgU2FucyIgeT0iLTcuMSIgeD0iNDQuNSIgdGV4dC1hbmNob3I9Im1pZGRsZSI+KyBkYXRhOmRvdWJsZTwvdGV4dD4mI3hhOzwvZz4mI3hhOyYjeGE7PGcgY2xhc3M9Im5vZGUiIGlkPSJub2RlMiI+JiN4YTs8dGl0bGU+UHJvdG9idWZWZWN0b3I8L3RpdGxlPiYjeGE7PHBvbHlnb24gcG9pbnRzPSIxMDcsLTguNSAxMDcsLTQ0LjUgMTgwLC00NC41IDE4MCwtOC41IDEwNywtOC41IiBzdHJva2U9ImJsYWNrIiBmaWxsPSIjZjJmMmYyIi8+JiN4YTs8dGV4dCBmb250LXNpemU9IjguMDAiIGZvbnQtZmFtaWx5PSJCaXRzdHJlYW0gVmVyYSBTYW5zIiB5PSItMzMuNiIgeD0iMTQzLjUiIHRleHQtYW5jaG9yPSJtaWRkbGUiPlByb3RvYnVmVmVjdG9yPC90ZXh0PiYjeGE7PHBvbHlsaW5lIHBvaW50cz0iMTA3LC0yNi41IDE4MCwtMjYuNSIgc3Ryb2tlPSJibGFjayIgZmlsbD0ibm9uZSIvPiYjeGE7PHRleHQgZm9udC1zaXplPSI4LjAwIiBmb250LWZhbWlseT0iQml0c3RyZWFtIFZlcmEgU2FucyIgeT0iLTE1LjYiIHg9IjE0My41IiB0ZXh0LWFuY2hvcj0ibWlkZGxlIj4rIHJvd3M6ZG91YmxlPC90ZXh0PiYjeGE7PC9nPiYjeGE7PC9nPiYjeGE7PC9zdmc+;" vertex="1" parent="WIyWlLk6GJQsqaUBKTNV-1">
          <mxGeometry x="790" y="750" width="288" height="93.45" as="geometry" />
        </mxCell>
        <mxCell id="N2CqPFAMYml7u8-fk6KA-4" value="" style="shape=image;verticalLabelPosition=bottom;labelBackgroundColor=default;verticalAlign=top;aspect=fixed;imageAspect=0;editableCssRules=.*;image=data:image/svg+xml,PHN2ZyB4bWxuczp4bGluaz0iaHR0cDovL3d3dy53My5vcmcvMTk5OS94bGluayIgeG1sbnM9Imh0dHA6Ly93d3cudzMub3JnLzIwMDAvc3ZnIiB2aWV3Qm94PSIwIDAgMjQwIDE1MiIgaGVpZ2h0PSIxNTIiIHdpZHRoPSIyNDAiPiYjeGE7PGcgdHJhbnNmb3JtPSJzY2FsZSgxIDEpIHJvdGF0ZSgwKSB0cmFuc2xhdGUoNCAxNDgpIiBjbGFzcz0iZ3JhcGgiIGlkPSJncmFwaDAiPiYjeGE7PHRpdGxlPiBVTUwgY2xhc3MgZGlhZ3JhbTwvdGl0bGU+JiN4YTs8cG9seWdvbiBwb2ludHM9Ii00LDQgLTQsLTE0OCAyMzYsLTE0OCAyMzYsNCAtNCw0IiBzdHJva2U9Im5vbmUiIGZpbGwtb3BhY2l0eT0iMCIgZmlsbD0id2hpdGUiLz4mI3hhOyYjeGE7PGcgY2xhc3M9Im5vZGUiIGlkPSJub2RlMSI+JiN4YTs8dGl0bGU+VHJhamVjdG9yeVN0YXRlPC90aXRsZT4mI3hhOzxwb2x5Z29uIHBvaW50cz0iNzgsLTczLjUgNzgsLTE0My41IDE4MywtMTQzLjUgMTgzLC03My41IDc4LC03My41IiBzdHJva2U9ImJsYWNrIiBmaWxsPSIjZjJmMmYyIi8+JiN4YTs8dGV4dCBmb250LXNpemU9IjguMDAiIGZvbnQtZmFtaWx5PSJCaXRzdHJlYW0gVmVyYSBTYW5zIiB5PSItMTMzLjEiIHg9IjEzMC41IiB0ZXh0LWFuY2hvcj0ibWlkZGxlIj5UcmFqZWN0b3J5U3RhdGU8L3RleHQ+JiN4YTs8cG9seWxpbmUgcG9pbnRzPSI3OCwtMTI2LjUgMTgzLC0xMjYuNSIgc3Ryb2tlPSJibGFjayIgZmlsbD0ibm9uZSIvPiYjeGE7PHRleHQgZm9udC1zaXplPSI4LjAwIiBmb250LWZhbWlseT0iQml0c3RyZWFtIFZlcmEgU2FucyIgeT0iLTExNi4xIiB4PSIxMzAuNSIgdGV4dC1hbmNob3I9Im1pZGRsZSI+KyB0aW1lOmRvdWJsZTwvdGV4dD4mI3hhOzx0ZXh0IGZvbnQtc2l6ZT0iOC4wMCIgZm9udC1mYW1pbHk9IkJpdHN0cmVhbSBWZXJhIFNhbnMiIHk9Ii0xMDcuMSIgeD0iMTMwLjUiIHRleHQtYW5jaG9yPSJtaWRkbGUiPisgdmVsb2NpdHk6ZG91YmxlPC90ZXh0PiYjeGE7PHRleHQgZm9udC1zaXplPSI4LjAwIiBmb250LWZhbWlseT0iQml0c3RyZWFtIFZlcmEgU2FucyIgeT0iLTk4LjEiIHg9IjEzMC41IiB0ZXh0LWFuY2hvcj0ibWlkZGxlIj4rIGFjY2VsZXJhdGlvbjpkb3VibGU8L3RleHQ+JiN4YTs8dGV4dCBmb250LXNpemU9IjguMDAiIGZvbnQtZmFtaWx5PSJCaXRzdHJlYW0gVmVyYSBTYW5zIiB5PSItODkuMSIgeD0iMTMwLjUiIHRleHQtYW5jaG9yPSJtaWRkbGUiPisgcG9zZTpQb3NlMmQ8L3RleHQ+JiN4YTs8dGV4dCBmb250LXNpemU9IjguMDAiIGZvbnQtZmFtaWx5PSJCaXRzdHJlYW0gVmVyYSBTYW5zIiB5PSItODAuMSIgeD0iMTMwLjUiIHRleHQtYW5jaG9yPSJtaWRkbGUiPisgY3VydmF0dXJlOmRvdWJsZTwvdGV4dD4mI3hhOzwvZz4mI3hhOyYjeGE7PGcgY2xhc3M9Im5vZGUiIGlkPSJub2RlMiI+JiN4YTs8dGl0bGU+VHJhamVjdG9yeTwvdGl0bGU+JiN4YTs8cG9seWdvbiBwb2ludHM9IjAsLTAuNSAwLC0zNi41IDEzNywtMzYuNSAxMzcsLTAuNSAwLC0wLjUiIHN0cm9rZT0iYmxhY2siIGZpbGw9IiNmMmYyZjIiLz4mI3hhOzx0ZXh0IGZvbnQtc2l6ZT0iOC4wMCIgZm9udC1mYW1pbHk9IkJpdHN0cmVhbSBWZXJhIFNhbnMiIHk9Ii0yNS42IiB4PSI2OC41IiB0ZXh0LWFuY2hvcj0ibWlkZGxlIj5UcmFqZWN0b3J5PC90ZXh0PiYjeGE7PHBvbHlsaW5lIHBvaW50cz0iMCwtMTguNSAxMzcsLTE4LjUiIHN0cm9rZT0iYmxhY2siIGZpbGw9Im5vbmUiLz4mI3hhOzx0ZXh0IGZvbnQtc2l6ZT0iOC4wMCIgZm9udC1mYW1pbHk9IkJpdHN0cmVhbSBWZXJhIFNhbnMiIHk9Ii03LjYiIHg9IjY4LjUiIHRleHQtYW5jaG9yPSJtaWRkbGUiPisgc3RhdGVzOlRyYWplY3RvcnlTdGF0ZTwvdGV4dD4mI3hhOzwvZz4mI3hhOyYjeGE7PGcgY2xhc3M9ImVkZ2UiIGlkPSJlZGdlMiI+JiN4YTs8dGl0bGU+VHJhamVjdG9yeVN0YXRlLSZndDtUcmFqZWN0b3J5PC90aXRsZT4mI3hhOzxwYXRoIGQ9Ik0xMDYuNzEsLTczLjczQzEwMC40NCwtNjQuODMgOTMuNzUsLTU1LjM0IDg3Ljc2LC00Ni44MyIgc3Ryb2tlPSJibGFjayIgZmlsbD0ibm9uZSIvPiYjeGE7PHBvbHlnb24gcG9pbnRzPSI4Ny43OSwtNDYuODggODEuMDcsLTQ0LjI4IDgwLjg4LC0zNy4wNyA4Ny42MSwtMzkuNjggODcuNzksLTQ2Ljg4IiBzdHJva2U9ImJsYWNrIiBmaWxsPSJub25lIi8+JiN4YTs8dGV4dCBmb250LXNpemU9IjguMDAiIGZvbnQtZmFtaWx5PSJCaXRzdHJlYW0gVmVyYSBTYW5zIiB5PSItMzguOTQiIHg9Ijc3Ljg2IiB0ZXh0LWFuY2hvcj0ibWlkZGxlIj4xPC90ZXh0PiYjeGE7PHRleHQgZm9udC1zaXplPSI4LjAwIiBmb250LWZhbWlseT0iQml0c3RyZWFtIFZlcmEgU2FucyIgeT0iLTY3LjMzIiB4PSI5OS43MSIgdGV4dC1hbmNob3I9Im1pZGRsZSI+MC4uKjwvdGV4dD4mI3hhOzwvZz4mI3hhOyYjeGE7PGcgY2xhc3M9Im5vZGUiIGlkPSJub2RlMyI+JiN4YTs8dGl0bGU+UG9zZTJkPC90aXRsZT4mI3hhOzxwb2x5Z29uIHBvaW50cz0iMTU1LC0wLjUgMTU1LC0zNi41IDIzMiwtMzYuNSAyMzIsLTAuNSAxNTUsLTAuNSIgc3Ryb2tlPSJibGFjayIgZmlsbD0iI2YyZjJmMiIvPiYjeGE7PHRleHQgZm9udC1zaXplPSI4LjAwIiBmb250LWZhbWlseT0iQml0c3RyZWFtIFZlcmEgU2FucyIgeT0iLTE2LjYiIHg9IjE5My41IiB0ZXh0LWFuY2hvcj0ibWlkZGxlIj5Qb3NlMmQ8L3RleHQ+JiN4YTs8L2c+JiN4YTsmI3hhOzxnIGNsYXNzPSJlZGdlIiBpZD0iZWRnZTEiPiYjeGE7PHRpdGxlPlRyYWplY3RvcnlTdGF0ZS0mZ3Q7UG9zZTJkPC90aXRsZT4mI3hhOzxwYXRoIGQ9Ik0xNTQuNjgsLTczLjczQzE2My44NCwtNjAuOTMgMTczLjg3LC00Ni45MSAxODEuNDUsLTM2LjM0IiBzdHJva2U9ImJsYWNrIiBmaWxsPSJub25lIi8+JiN4YTs8dGV4dCBmb250LXNpemU9IjguMDAiIGZvbnQtZmFtaWx5PSJCaXRzdHJlYW0gVmVyYSBTYW5zIiB5PSItMzguOTQiIHg9IjE3OC45NSIgdGV4dC1hbmNob3I9Im1pZGRsZSI+MTwvdGV4dD4mI3hhOzx0ZXh0IGZvbnQtc2l6ZT0iOC4wMCIgZm9udC1mYW1pbHk9IkJpdHN0cmVhbSBWZXJhIFNhbnMiIHk9Ii02Ny4zMyIgeD0iMTUyLjE4IiB0ZXh0LWFuY2hvcj0ibWlkZGxlIj4xPC90ZXh0PiYjeGE7PC9nPiYjeGE7PC9nPiYjeGE7PC9zdmc+;" vertex="1" parent="WIyWlLk6GJQsqaUBKTNV-1">
          <mxGeometry x="1240" y="60" width="318.95" height="202" as="geometry" />
        </mxCell>
        <mxCell id="N2CqPFAMYml7u8-fk6KA-5" value="" style="shape=image;verticalLabelPosition=bottom;labelBackgroundColor=default;verticalAlign=top;aspect=fixed;imageAspect=0;editableCssRules=.*;image=data:image/svg+xml,PHN2ZyB4bWxuczp4bGluaz0iaHR0cDovL3d3dy53My5vcmcvMTk5OS94bGluayIgeG1sbnM9Imh0dHA6Ly93d3cudzMub3JnLzIwMDAvc3ZnIiB2aWV3Qm94PSIwIDAgNDI3LjUgMjc1IiBoZWlnaHQ9IjI3NSIgd2lkdGg9IjQyOCI+JiN4YTs8ZyB0cmFuc2Zvcm09InNjYWxlKDEgMSkgcm90YXRlKDApIHRyYW5zbGF0ZSg0IDI3MSkiIGNsYXNzPSJncmFwaCIgaWQ9ImdyYXBoMCI+JiN4YTs8dGl0bGU+IFVNTCBjbGFzcyBkaWFncmFtPC90aXRsZT4mI3hhOzxwb2x5Z29uIHBvaW50cz0iLTQsNCAtNCwtMjcxIDQyMy41LC0yNzEgNDIzLjUsNCAtNCw0IiBzdHJva2U9Im5vbmUiIGZpbGwtb3BhY2l0eT0iMCIgZmlsbD0id2hpdGUiLz4mI3hhOyYjeGE7PGcgY2xhc3M9Im5vZGUiIGlkPSJub2RlMSI+JiN4YTs8dGl0bGU+VHJhbnNsYXRpb24zZDwvdGl0bGU+JiN4YTs8cG9seWdvbiBwb2ludHM9IjQ5LjUsLTk4LjUgNDkuNSwtMTUwLjUgMTUwLjUsLTE1MC41IDE1MC41LC05OC41IDQ5LjUsLTk4LjUiIHN0cm9rZT0iYmxhY2siIGZpbGw9IiNmMmYyZjIiLz4mI3hhOzx0ZXh0IGZvbnQtc2l6ZT0iOC4wMCIgZm9udC1mYW1pbHk9IkJpdHN0cmVhbSBWZXJhIFNhbnMiIHk9Ii0xNDAuMSIgeD0iMTAwIiB0ZXh0LWFuY2hvcj0ibWlkZGxlIj5UcmFuc2xhdGlvbjNkPC90ZXh0PiYjeGE7PHBvbHlsaW5lIHBvaW50cz0iNDkuNSwtMTMzLjUgMTUwLjUsLTEzMy41IiBzdHJva2U9ImJsYWNrIiBmaWxsPSJub25lIi8+JiN4YTs8dGV4dCBmb250LXNpemU9IjguMDAiIGZvbnQtZmFtaWx5PSJCaXRzdHJlYW0gVmVyYSBTYW5zIiB5PSItMTIzLjEiIHg9IjEwMCIgdGV4dC1hbmNob3I9Im1pZGRsZSI+KyB4OmRvdWJsZTwvdGV4dD4mI3hhOzx0ZXh0IGZvbnQtc2l6ZT0iOC4wMCIgZm9udC1mYW1pbHk9IkJpdHN0cmVhbSBWZXJhIFNhbnMiIHk9Ii0xMTQuMSIgeD0iMTAwIiB0ZXh0LWFuY2hvcj0ibWlkZGxlIj4rIHk6ZG91YmxlPC90ZXh0PiYjeGE7PHRleHQgZm9udC1zaXplPSI4LjAwIiBmb250LWZhbWlseT0iQml0c3RyZWFtIFZlcmEgU2FucyIgeT0iLTEwNS4xIiB4PSIxMDAiIHRleHQtYW5jaG9yPSJtaWRkbGUiPisgejpkb3VibGU8L3RleHQ+JiN4YTs8L2c+JiN4YTsmI3hhOzxnIGNsYXNzPSJub2RlIiBpZD0ibm9kZTIiPiYjeGE7PHRpdGxlPlF1YXRlcm5pb248L3RpdGxlPiYjeGE7PHBvbHlnb24gcG9pbnRzPSIxODcuNSwtMC41IDE4Ny41LC02MS41IDI4MC41LC02MS41IDI4MC41LC0wLjUgMTg3LjUsLTAuNSIgc3Ryb2tlPSJibGFjayIgZmlsbD0iI2YyZjJmMiIvPiYjeGE7PHRleHQgZm9udC1zaXplPSI4LjAwIiBmb250LWZhbWlseT0iQml0c3RyZWFtIFZlcmEgU2FucyIgeT0iLTUxLjEiIHg9IjIzNCIgdGV4dC1hbmNob3I9Im1pZGRsZSI+UXVhdGVybmlvbjwvdGV4dD4mI3hhOzxwb2x5bGluZSBwb2ludHM9IjE4Ny41LC00NC41IDI4MC41LC00NC41IiBzdHJva2U9ImJsYWNrIiBmaWxsPSJub25lIi8+JiN4YTs8dGV4dCBmb250LXNpemU9IjguMDAiIGZvbnQtZmFtaWx5PSJCaXRzdHJlYW0gVmVyYSBTYW5zIiB5PSItMzQuMSIgeD0iMjM0IiB0ZXh0LWFuY2hvcj0ibWlkZGxlIj4rIHc6ZG91YmxlPC90ZXh0PiYjeGE7PHRleHQgZm9udC1zaXplPSI4LjAwIiBmb250LWZhbWlseT0iQml0c3RyZWFtIFZlcmEgU2FucyIgeT0iLTI1LjEiIHg9IjIzNCIgdGV4dC1hbmNob3I9Im1pZGRsZSI+KyB4OmRvdWJsZTwvdGV4dD4mI3hhOzx0ZXh0IGZvbnQtc2l6ZT0iOC4wMCIgZm9udC1mYW1pbHk9IkJpdHN0cmVhbSBWZXJhIFNhbnMiIHk9Ii0xNi4xIiB4PSIyMzQiIHRleHQtYW5jaG9yPSJtaWRkbGUiPisgeTpkb3VibGU8L3RleHQ+JiN4YTs8dGV4dCBmb250LXNpemU9IjguMDAiIGZvbnQtZmFtaWx5PSJCaXRzdHJlYW0gVmVyYSBTYW5zIiB5PSItNy4xIiB4PSIyMzQiIHRleHQtYW5jaG9yPSJtaWRkbGUiPisgejpkb3VibGU8L3RleHQ+JiN4YTs8L2c+JiN4YTsmI3hhOzxnIGNsYXNzPSJub2RlIiBpZD0ibm9kZTMiPiYjeGE7PHRpdGxlPlJvdGF0aW9uM2Q8L3RpdGxlPiYjeGE7PHBvbHlnb24gcG9pbnRzPSIxODAuNSwtMTA2LjUgMTgwLjUsLTE0Mi41IDI4Ny41LC0xNDIuNSAyODcuNSwtMTA2LjUgMTgwLjUsLTEwNi41IiBzdHJva2U9ImJsYWNrIiBmaWxsPSIjZjJmMmYyIi8+JiN4YTs8dGV4dCBmb250LXNpemU9IjguMDAiIGZvbnQtZmFtaWx5PSJCaXRzdHJlYW0gVmVyYSBTYW5zIiB5PSItMTMxLjYiIHg9IjIzNCIgdGV4dC1hbmNob3I9Im1pZGRsZSI+Um90YXRpb24zZDwvdGV4dD4mI3hhOzxwb2x5bGluZSBwb2ludHM9IjE4MC41LC0xMjQuNSAyODcuNSwtMTI0LjUiIHN0cm9rZT0iYmxhY2siIGZpbGw9Im5vbmUiLz4mI3hhOzx0ZXh0IGZvbnQtc2l6ZT0iOC4wMCIgZm9udC1mYW1pbHk9IkJpdHN0cmVhbSBWZXJhIFNhbnMiIHk9Ii0xMTMuNiIgeD0iMjM0IiB0ZXh0LWFuY2hvcj0ibWlkZGxlIj4rIHE6UXVhdGVybmlvbjwvdGV4dD4mI3hhOzwvZz4mI3hhOyYjeGE7PGcgY2xhc3M9ImVkZ2UiIGlkPSJlZGdlMSI+JiN4YTs8dGl0bGU+Um90YXRpb24zZC0mZ3Q7UXVhdGVybmlvbjwvdGl0bGU+JiN4YTs8cGF0aCBkPSJNMjM0LC0xMDYuNzJDMjM0LC05NC4wMyAyMzQsLTc2LjI4IDIzNCwtNjEuMjciIHN0cm9rZT0iYmxhY2siIGZpbGw9Im5vbmUiLz4mI3hhOzx0ZXh0IGZvbnQtc2l6ZT0iOC4wMCIgZm9udC1mYW1pbHk9IkJpdHN0cmVhbSBWZXJhIFNhbnMiIHk9Ii02My44NyIgeD0iMjMxLjUiIHRleHQtYW5jaG9yPSJtaWRkbGUiPjE8L3RleHQ+JiN4YTs8dGV4dCBmb250LXNpemU9IjguMDAiIGZvbnQtZmFtaWx5PSJCaXRzdHJlYW0gVmVyYSBTYW5zIiB5PSItMTAwLjMyIiB4PSIyMzEuNSIgdGV4dC1hbmNob3I9Im1pZGRsZSI+MTwvdGV4dD4mI3hhOzwvZz4mI3hhOyYjeGE7PGcgY2xhc3M9Im5vZGUiIGlkPSJub2RlNCI+JiN4YTs8dGl0bGU+UG9zZTNkPC90aXRsZT4mI3hhOzxwb2x5Z29uIHBvaW50cz0iMCwtMjA1LjUgMCwtMjQ4LjUgMTUyLC0yNDguNSAxNTIsLTIwNS41IDAsLTIwNS41IiBzdHJva2U9ImJsYWNrIiBmaWxsPSIjZjJmMmYyIi8+JiN4YTs8dGV4dCBmb250LXNpemU9IjguMDAiIGZvbnQtZmFtaWx5PSJCaXRzdHJlYW0gVmVyYSBTYW5zIiB5PSItMjM4LjEiIHg9Ijc2IiB0ZXh0LWFuY2hvcj0ibWlkZGxlIj5Qb3NlM2Q8L3RleHQ+JiN4YTs8cG9seWxpbmUgcG9pbnRzPSIwLC0yMzEuNSAxNTIsLTIzMS41IiBzdHJva2U9ImJsYWNrIiBmaWxsPSJub25lIi8+JiN4YTs8dGV4dCBmb250LXNpemU9IjguMDAiIGZvbnQtZmFtaWx5PSJCaXRzdHJlYW0gVmVyYSBTYW5zIiB5PSItMjIxLjEiIHg9Ijc2IiB0ZXh0LWFuY2hvcj0ibWlkZGxlIj4rIHRyYW5zbGF0aW9uOlRyYW5zbGF0aW9uM2Q8L3RleHQ+JiN4YTs8dGV4dCBmb250LXNpemU9IjguMDAiIGZvbnQtZmFtaWx5PSJCaXRzdHJlYW0gVmVyYSBTYW5zIiB5PSItMjEyLjEiIHg9Ijc2IiB0ZXh0LWFuY2hvcj0ibWlkZGxlIj4rIHJvdGF0aW9uOlJvdGF0aW9uM2Q8L3RleHQ+JiN4YTs8L2c+JiN4YTsmI3hhOzxnIGNsYXNzPSJlZGdlIiBpZD0iZWRnZTIiPiYjeGE7PHRpdGxlPlBvc2UzZC0mZ3Q7VHJhbnNsYXRpb24zZDwvdGl0bGU+JiN4YTs8cGF0aCBkPSJNODAuODYsLTIwNS42NkM4NC42NiwtMTg5LjcyIDg5Ljk4LC0xNjcuNDUgOTQuMDUsLTE1MC40NCIgc3Ryb2tlPSJibGFjayIgZmlsbD0ibm9uZSIvPiYjeGE7PHRleHQgZm9udC1zaXplPSI4LjAwIiBmb250LWZhbWlseT0iQml0c3RyZWFtIFZlcmEgU2FucyIgeT0iLTE1My4wNCIgeD0iOTEuNTUiIHRleHQtYW5jaG9yPSJtaWRkbGUiPjE8L3RleHQ+JiN4YTs8dGV4dCBmb250LXNpemU9IjguMDAiIGZvbnQtZmFtaWx5PSJCaXRzdHJlYW0gVmVyYSBTYW5zIiB5PSItMTk5LjI2IiB4PSI3OC4zNiIgdGV4dC1hbmNob3I9Im1pZGRsZSI+MTwvdGV4dD4mI3hhOzwvZz4mI3hhOyYjeGE7PGcgY2xhc3M9ImVkZ2UiIGlkPSJlZGdlMyI+JiN4YTs8dGl0bGU+UG9zZTNkLSZndDtSb3RhdGlvbjNkPC90aXRsZT4mI3hhOzxwYXRoIGQ9Ik0xMDcuOTcsLTIwNS42NkMxMzcuMTksLTE4Ny4wOCAxNzkuOSwtMTU5LjkxIDIwNy4zMiwtMTQyLjQ3IiBzdHJva2U9ImJsYWNrIiBmaWxsPSJub25lIi8+JiN4YTs8dGV4dCBmb250LXNpemU9IjguMDAiIGZvbnQtZmFtaWx5PSJCaXRzdHJlYW0gVmVyYSBTYW5zIiB5PSItMTQ1LjA3IiB4PSIyMDQuODIiIHRleHQtYW5jaG9yPSJtaWRkbGUiPjE8L3RleHQ+JiN4YTs8dGV4dCBmb250LXNpemU9IjguMDAiIGZvbnQtZmFtaWx5PSJCaXRzdHJlYW0gVmVyYSBTYW5zIiB5PSItMTk5LjI2IiB4PSIxMDUuNDciIHRleHQtYW5jaG9yPSJtaWRkbGUiPjE8L3RleHQ+JiN4YTs8L2c+JiN4YTsmI3hhOzxnIGNsYXNzPSJub2RlIiBpZD0ibm9kZTUiPiYjeGE7PHRpdGxlPlRyYW5zZm9ybTNkPC90aXRsZT4mI3hhOzxwb2x5Z29uIHBvaW50cz0iMTcwLC0yMDUuNSAxNzAsLTI0OC41IDMyMiwtMjQ4LjUgMzIyLC0yMDUuNSAxNzAsLTIwNS41IiBzdHJva2U9ImJsYWNrIiBmaWxsPSIjZjJmMmYyIi8+JiN4YTs8dGV4dCBmb250LXNpemU9IjguMDAiIGZvbnQtZmFtaWx5PSJCaXRzdHJlYW0gVmVyYSBTYW5zIiB5PSItMjM4LjEiIHg9IjI0NiIgdGV4dC1hbmNob3I9Im1pZGRsZSI+VHJhbnNmb3JtM2Q8L3RleHQ+JiN4YTs8cG9seWxpbmUgcG9pbnRzPSIxNzAsLTIzMS41IDMyMiwtMjMxLjUiIHN0cm9rZT0iYmxhY2siIGZpbGw9Im5vbmUiLz4mI3hhOzx0ZXh0IGZvbnQtc2l6ZT0iOC4wMCIgZm9udC1mYW1pbHk9IkJpdHN0cmVhbSBWZXJhIFNhbnMiIHk9Ii0yMjEuMSIgeD0iMjQ2IiB0ZXh0LWFuY2hvcj0ibWlkZGxlIj4rIHRyYW5zbGF0aW9uOlRyYW5zbGF0aW9uM2Q8L3RleHQ+JiN4YTs8dGV4dCBmb250LXNpemU9IjguMDAiIGZvbnQtZmFtaWx5PSJCaXRzdHJlYW0gVmVyYSBTYW5zIiB5PSItMjEyLjEiIHg9IjI0NiIgdGV4dC1hbmNob3I9Im1pZGRsZSI+KyByb3RhdGlvbjpSb3RhdGlvbjNkPC90ZXh0PiYjeGE7PC9nPiYjeGE7JiN4YTs8ZyBjbGFzcz0iZWRnZSIgaWQ9ImVkZ2U0Ij4mI3hhOzx0aXRsZT5UcmFuc2Zvcm0zZC0mZ3Q7VHJhbnNsYXRpb24zZDwvdGl0bGU+JiN4YTs8cGF0aCBkPSJNMjE2LjQ1LC0yMDUuNjZDMTkzLjI5LC0xODkuNzIgMTYwLjk1LC0xNjcuNDUgMTM2LjIyLC0xNTAuNDQiIHN0cm9rZT0iYmxhY2siIGZpbGw9Im5vbmUiLz4mI3hhOzx0ZXh0IGZvbnQtc2l6ZT0iOC4wMCIgZm9udC1mYW1pbHk9IkJpdHN0cmVhbSBWZXJhIFNhbnMiIHk9Ii0xNTMuMDQiIHg9IjEzMy43MiIgdGV4dC1hbmNob3I9Im1pZGRsZSI+MTwvdGV4dD4mI3hhOzx0ZXh0IGZvbnQtc2l6ZT0iOC4wMCIgZm9udC1mYW1pbHk9IkJpdHN0cmVhbSBWZXJhIFNhbnMiIHk9Ii0xOTkuMjYiIHg9IjIxMy45NSIgdGV4dC1hbmNob3I9Im1pZGRsZSI+MTwvdGV4dD4mI3hhOzwvZz4mI3hhOyYjeGE7PGcgY2xhc3M9ImVkZ2UiIGlkPSJlZGdlNSI+JiN4YTs8dGl0bGU+VHJhbnNmb3JtM2QtJmd0O1JvdGF0aW9uM2Q8L3RpdGxlPiYjeGE7PHBhdGggZD0iTTI0My41NywtMjA1LjY2QzI0MS4zNSwtMTg3LjA4IDIzOC4xMSwtMTU5LjkxIDIzNi4wMywtMTQyLjQ3IiBzdHJva2U9ImJsYWNrIiBmaWxsPSJub25lIi8+JiN4YTs8dGV4dCBmb250LXNpemU9IjguMDAiIGZvbnQtZmFtaWx5PSJCaXRzdHJlYW0gVmVyYSBTYW5zIiB5PSItMTQ1LjA3IiB4PSIyMzMuNTMiIHRleHQtYW5jaG9yPSJtaWRkbGUiPjE8L3RleHQ+JiN4YTs8dGV4dCBmb250LXNpemU9IjguMDAiIGZvbnQtZmFtaWx5PSJCaXRzdHJlYW0gVmVyYSBTYW5zIiB5PSItMTk5LjI2IiB4PSIyNDEuMDciIHRleHQtYW5jaG9yPSJtaWRkbGUiPjE8L3RleHQ+JiN4YTs8L2c+JiN4YTsmI3hhOzxnIGNsYXNzPSJub2RlIiBpZD0ibm9kZTYiPiYjeGE7PHRpdGxlPlR3aXN0M2Q8L3RpdGxlPiYjeGE7PHBvbHlnb24gcG9pbnRzPSIzNDAuNSwtMTg3LjUgMzQwLjUsLTI2Ni41IDQxOS41LC0yNjYuNSA0MTkuNSwtMTg3LjUgMzQwLjUsLTE4Ny41IiBzdHJva2U9ImJsYWNrIiBmaWxsPSIjZjJmMmYyIi8+JiN4YTs8dGV4dCBmb250LXNpemU9IjguMDAiIGZvbnQtZmFtaWx5PSJCaXRzdHJlYW0gVmVyYSBTYW5zIiB5PSItMjU2LjEiIHg9IjM4MCIgdGV4dC1hbmNob3I9Im1pZGRsZSI+VHdpc3QzZDwvdGV4dD4mI3hhOzxwb2x5bGluZSBwb2ludHM9IjM0MC41LC0yNDkuNSA0MTkuNSwtMjQ5LjUiIHN0cm9rZT0iYmxhY2siIGZpbGw9Im5vbmUiLz4mI3hhOzx0ZXh0IGZvbnQtc2l6ZT0iOC4wMCIgZm9udC1mYW1pbHk9IkJpdHN0cmVhbSBWZXJhIFNhbnMiIHk9Ii0yMzkuMSIgeD0iMzgwIiB0ZXh0LWFuY2hvcj0ibWlkZGxlIj4rIGR4OmRvdWJsZTwvdGV4dD4mI3hhOzx0ZXh0IGZvbnQtc2l6ZT0iOC4wMCIgZm9udC1mYW1pbHk9IkJpdHN0cmVhbSBWZXJhIFNhbnMiIHk9Ii0yMzAuMSIgeD0iMzgwIiB0ZXh0LWFuY2hvcj0ibWlkZGxlIj4rIGR5OmRvdWJsZTwvdGV4dD4mI3hhOzx0ZXh0IGZvbnQtc2l6ZT0iOC4wMCIgZm9udC1mYW1pbHk9IkJpdHN0cmVhbSBWZXJhIFNhbnMiIHk9Ii0yMjEuMSIgeD0iMzgwIiB0ZXh0LWFuY2hvcj0ibWlkZGxlIj4rIGR6OmRvdWJsZTwvdGV4dD4mI3hhOzx0ZXh0IGZvbnQtc2l6ZT0iOC4wMCIgZm9udC1mYW1pbHk9IkJpdHN0cmVhbSBWZXJhIFNhbnMiIHk9Ii0yMTIuMSIgeD0iMzgwIiB0ZXh0LWFuY2hvcj0ibWlkZGxlIj4rIHJ4OmRvdWJsZTwvdGV4dD4mI3hhOzx0ZXh0IGZvbnQtc2l6ZT0iOC4wMCIgZm9udC1mYW1pbHk9IkJpdHN0cmVhbSBWZXJhIFNhbnMiIHk9Ii0yMDMuMSIgeD0iMzgwIiB0ZXh0LWFuY2hvcj0ibWlkZGxlIj4rIHJ5OmRvdWJsZTwvdGV4dD4mI3hhOzx0ZXh0IGZvbnQtc2l6ZT0iOC4wMCIgZm9udC1mYW1pbHk9IkJpdHN0cmVhbSBWZXJhIFNhbnMiIHk9Ii0xOTQuMSIgeD0iMzgwIiB0ZXh0LWFuY2hvcj0ibWlkZGxlIj4rIHJ6OmRvdWJsZTwvdGV4dD4mI3hhOzwvZz4mI3hhOzwvZz4mI3hhOzwvc3ZnPg==;" vertex="1" parent="WIyWlLk6GJQsqaUBKTNV-1">
          <mxGeometry x="1680" y="20" width="504.27" height="324" as="geometry" />
        </mxCell>
        <mxCell id="N2CqPFAMYml7u8-fk6KA-6" value="" style="shape=image;verticalLabelPosition=bottom;labelBackgroundColor=default;verticalAlign=top;aspect=fixed;imageAspect=0;editableCssRules=.*;image=data:image/svg+xml,PHN2ZyB4bWxuczp4bGluaz0iaHR0cDovL3d3dy53My5vcmcvMTk5OS94bGluayIgeG1sbnM9Imh0dHA6Ly93d3cudzMub3JnLzIwMDAvc3ZnIiB2aWV3Qm94PSIwIDAgMjg0IDcwIiBoZWlnaHQ9IjcwIiB3aWR0aD0iMjg0Ij4mI3hhOzxnIHRyYW5zZm9ybT0ic2NhbGUoMSAxKSByb3RhdGUoMCkgdHJhbnNsYXRlKDQgNjYpIiBjbGFzcz0iZ3JhcGgiIGlkPSJncmFwaDAiPiYjeGE7PHRpdGxlPiBVTUwgY2xhc3MgZGlhZ3JhbTwvdGl0bGU+JiN4YTs8cG9seWdvbiBwb2ludHM9Ii00LDQgLTQsLTY2IDI4MCwtNjYgMjgwLDQgLTQsNCIgc3Ryb2tlPSJub25lIiBmaWxsLW9wYWNpdHk9IjAiIGZpbGw9IndoaXRlIi8+JiN4YTsmI3hhOzxnIGNsYXNzPSJub2RlIiBpZD0ibm9kZTEiPiYjeGE7PHRpdGxlPkN1YmljSGVybWl0ZVNwbGluZTwvdGl0bGU+JiN4YTs8cG9seWdvbiBwb2ludHM9IjAsLTAuNSAwLC02MS41IDEyNiwtNjEuNSAxMjYsLTAuNSAwLC0wLjUiIHN0cm9rZT0iYmxhY2siIGZpbGw9IiNmMmYyZjIiLz4mI3hhOzx0ZXh0IGZvbnQtc2l6ZT0iOC4wMCIgZm9udC1mYW1pbHk9IkJpdHN0cmVhbSBWZXJhIFNhbnMiIHk9Ii01MS4xIiB4PSI2MyIgdGV4dC1hbmNob3I9Im1pZGRsZSI+Q3ViaWNIZXJtaXRlU3BsaW5lPC90ZXh0PiYjeGE7PHBvbHlsaW5lIHBvaW50cz0iMCwtNDQuNSAxMjYsLTQ0LjUiIHN0cm9rZT0iYmxhY2siIGZpbGw9Im5vbmUiLz4mI3hhOzx0ZXh0IGZvbnQtc2l6ZT0iOC4wMCIgZm9udC1mYW1pbHk9IkJpdHN0cmVhbSBWZXJhIFNhbnMiIHk9Ii0zNC4xIiB4PSI2MyIgdGV4dC1hbmNob3I9Im1pZGRsZSI+KyB4X2luaXRpYWw6ZG91YmxlPC90ZXh0PiYjeGE7PHRleHQgZm9udC1zaXplPSI4LjAwIiBmb250LWZhbWlseT0iQml0c3RyZWFtIFZlcmEgU2FucyIgeT0iLTI1LjEiIHg9IjYzIiB0ZXh0LWFuY2hvcj0ibWlkZGxlIj4rIHhfZmluYWw6ZG91YmxlPC90ZXh0PiYjeGE7PHRleHQgZm9udC1zaXplPSI4LjAwIiBmb250LWZhbWlseT0iQml0c3RyZWFtIFZlcmEgU2FucyIgeT0iLTE2LjEiIHg9IjYzIiB0ZXh0LWFuY2hvcj0ibWlkZGxlIj4rIHlfaW5pdGlhbDpkb3VibGU8L3RleHQ+JiN4YTs8dGV4dCBmb250LXNpemU9IjguMDAiIGZvbnQtZmFtaWx5PSJCaXRzdHJlYW0gVmVyYSBTYW5zIiB5PSItNy4xIiB4PSI2MyIgdGV4dC1hbmNob3I9Im1pZGRsZSI+KyB5X2ZpbmFsOmRvdWJsZTwvdGV4dD4mI3hhOzwvZz4mI3hhOyYjeGE7PGcgY2xhc3M9Im5vZGUiIGlkPSJub2RlMiI+JiN4YTs8dGl0bGU+UXVpbnRpY0hlcm1pdGVTcGxpbmU8L3RpdGxlPiYjeGE7PHBvbHlnb24gcG9pbnRzPSIxNDQsLTAuNSAxNDQsLTYxLjUgMjc2LC02MS41IDI3NiwtMC41IDE0NCwtMC41IiBzdHJva2U9ImJsYWNrIiBmaWxsPSIjZjJmMmYyIi8+JiN4YTs8dGV4dCBmb250LXNpemU9IjguMDAiIGZvbnQtZmFtaWx5PSJCaXRzdHJlYW0gVmVyYSBTYW5zIiB5PSItNTEuMSIgeD0iMjEwIiB0ZXh0LWFuY2hvcj0ibWlkZGxlIj5RdWludGljSGVybWl0ZVNwbGluZTwvdGV4dD4mI3hhOzxwb2x5bGluZSBwb2ludHM9IjE0NCwtNDQuNSAyNzYsLTQ0LjUiIHN0cm9rZT0iYmxhY2siIGZpbGw9Im5vbmUiLz4mI3hhOzx0ZXh0IGZvbnQtc2l6ZT0iOC4wMCIgZm9udC1mYW1pbHk9IkJpdHN0cmVhbSBWZXJhIFNhbnMiIHk9Ii0zNC4xIiB4PSIyMTAiIHRleHQtYW5jaG9yPSJtaWRkbGUiPisgeF9pbml0aWFsOmRvdWJsZTwvdGV4dD4mI3hhOzx0ZXh0IGZvbnQtc2l6ZT0iOC4wMCIgZm9udC1mYW1pbHk9IkJpdHN0cmVhbSBWZXJhIFNhbnMiIHk9Ii0yNS4xIiB4PSIyMTAiIHRleHQtYW5jaG9yPSJtaWRkbGUiPisgeF9maW5hbDpkb3VibGU8L3RleHQ+JiN4YTs8dGV4dCBmb250LXNpemU9IjguMDAiIGZvbnQtZmFtaWx5PSJCaXRzdHJlYW0gVmVyYSBTYW5zIiB5PSItMTYuMSIgeD0iMjEwIiB0ZXh0LWFuY2hvcj0ibWlkZGxlIj4rIHlfaW5pdGlhbDpkb3VibGU8L3RleHQ+JiN4YTs8dGV4dCBmb250LXNpemU9IjguMDAiIGZvbnQtZmFtaWx5PSJCaXRzdHJlYW0gVmVyYSBTYW5zIiB5PSItNy4xIiB4PSIyMTAiIHRleHQtYW5jaG9yPSJtaWRkbGUiPisgeV9maW5hbDpkb3VibGU8L3RleHQ+JiN4YTs8L2c+JiN4YTs8L2c+JiN4YTs8L3N2Zz4=;" vertex="1" parent="WIyWlLk6GJQsqaUBKTNV-1">
          <mxGeometry x="704" y="30" width="374" height="92.19" as="geometry" />
        </mxCell>
        <mxCell id="N2CqPFAMYml7u8-fk6KA-8" value="" style="shape=image;verticalLabelPosition=bottom;labelBackgroundColor=default;verticalAlign=top;aspect=fixed;imageAspect=0;editableCssRules=.*;image=data:image/svg+xml,PHN2ZyB4bWxuczp4bGluaz0iaHR0cDovL3d3dy53My5vcmcvMTk5OS94bGluayIgeG1sbnM9Imh0dHA6Ly93d3cudzMub3JnLzIwMDAvc3ZnIiB2aWV3Qm94PSIwIDAgMzczIDIyMSIgaGVpZ2h0PSIyMjEiIHdpZHRoPSIzNzMiPiYjeGE7PGcgdHJhbnNmb3JtPSJzY2FsZSgxIDEpIHJvdGF0ZSgwKSB0cmFuc2xhdGUoNCAyMTcpIiBjbGFzcz0iZ3JhcGgiIGlkPSJncmFwaDAiPiYjeGE7PHRpdGxlPiBVTUwgY2xhc3MgZGlhZ3JhbTwvdGl0bGU+JiN4YTs8cG9seWdvbiBwb2ludHM9Ii00LDQgLTQsLTIxNyAzNjksLTIxNyAzNjksNCAtNCw0IiBzdHJva2U9Im5vbmUiIGZpbGwtb3BhY2l0eT0iMCIgZmlsbD0id2hpdGUiLz4mI3hhOyYjeGE7PGcgY2xhc3M9Im5vZGUiIGlkPSJub2RlMSI+JiN4YTs8dGl0bGU+VHJhbnNsYXRpb24yZDwvdGl0bGU+JiN4YTs8cG9seWdvbiBwb2ludHM9Ijk1LjUsLTAuNSA5NS41LC00My41IDE5Ni41LC00My41IDE5Ni41LC0wLjUgOTUuNSwtMC41IiBzdHJva2U9ImJsYWNrIiBmaWxsPSIjZjJmMmYyIi8+JiN4YTs8dGV4dCBmb250LXNpemU9IjguMDAiIGZvbnQtZmFtaWx5PSJCaXRzdHJlYW0gVmVyYSBTYW5zIiB5PSItMzMuMSIgeD0iMTQ2IiB0ZXh0LWFuY2hvcj0ibWlkZGxlIj5UcmFuc2xhdGlvbjJkPC90ZXh0PiYjeGE7PHBvbHlsaW5lIHBvaW50cz0iOTUuNSwtMjYuNSAxOTYuNSwtMjYuNSIgc3Ryb2tlPSJibGFjayIgZmlsbD0ibm9uZSIvPiYjeGE7PHRleHQgZm9udC1zaXplPSI4LjAwIiBmb250LWZhbWlseT0iQml0c3RyZWFtIFZlcmEgU2FucyIgeT0iLTE2LjEiIHg9IjE0NiIgdGV4dC1hbmNob3I9Im1pZGRsZSI+KyB4OmRvdWJsZTwvdGV4dD4mI3hhOzx0ZXh0IGZvbnQtc2l6ZT0iOC4wMCIgZm9udC1mYW1pbHk9IkJpdHN0cmVhbSBWZXJhIFNhbnMiIHk9Ii03LjEiIHg9IjE0NiIgdGV4dC1hbmNob3I9Im1pZGRsZSI+KyB5OmRvdWJsZTwvdGV4dD4mI3hhOzwvZz4mI3hhOyYjeGE7PGcgY2xhc3M9Im5vZGUiIGlkPSJub2RlMiI+JiN4YTs8dGl0bGU+Um90YXRpb24yZDwvdGl0bGU+JiN4YTs8cG9seWdvbiBwb2ludHM9IjIyOSwtNCAyMjksLTQwIDMyMSwtNDAgMzIxLC00IDIyOSwtNCIgc3Ryb2tlPSJibGFjayIgZmlsbD0iI2YyZjJmMiIvPiYjeGE7PHRleHQgZm9udC1zaXplPSI4LjAwIiBmb250LWZhbWlseT0iQml0c3RyZWFtIFZlcmEgU2FucyIgeT0iLTI5LjEiIHg9IjI3NSIgdGV4dC1hbmNob3I9Im1pZGRsZSI+Um90YXRpb24yZDwvdGV4dD4mI3hhOzxwb2x5bGluZSBwb2ludHM9IjIyOSwtMjIgMzIxLC0yMiIgc3Ryb2tlPSJibGFjayIgZmlsbD0ibm9uZSIvPiYjeGE7PHRleHQgZm9udC1zaXplPSI4LjAwIiBmb250LWZhbWlseT0iQml0c3RyZWFtIFZlcmEgU2FucyIgeT0iLTExLjEiIHg9IjI3NSIgdGV4dC1hbmNob3I9Im1pZGRsZSI+KyB2YWx1ZTpkb3VibGU8L3RleHQ+JiN4YTs8L2c+JiN4YTsmI3hhOzxnIGNsYXNzPSJub2RlIiBpZD0ibm9kZTMiPiYjeGE7PHRpdGxlPlBvc2UyZDwvdGl0bGU+JiN4YTs8cG9seWdvbiBwb2ludHM9IjQzLC04MC41IDQzLC0xMjMuNSAxOTUsLTEyMy41IDE5NSwtODAuNSA0MywtODAuNSIgc3Ryb2tlPSJibGFjayIgZmlsbD0iI2YyZjJmMiIvPiYjeGE7PHRleHQgZm9udC1zaXplPSI4LjAwIiBmb250LWZhbWlseT0iQml0c3RyZWFtIFZlcmEgU2FucyIgeT0iLTExMy4xIiB4PSIxMTkiIHRleHQtYW5jaG9yPSJtaWRkbGUiPlBvc2UyZDwvdGV4dD4mI3hhOzxwb2x5bGluZSBwb2ludHM9IjQzLC0xMDYuNSAxOTUsLTEwNi41IiBzdHJva2U9ImJsYWNrIiBmaWxsPSJub25lIi8+JiN4YTs8dGV4dCBmb250LXNpemU9IjguMDAiIGZvbnQtZmFtaWx5PSJCaXRzdHJlYW0gVmVyYSBTYW5zIiB5PSItOTYuMSIgeD0iMTE5IiB0ZXh0LWFuY2hvcj0ibWlkZGxlIj4rIHRyYW5zbGF0aW9uOlRyYW5zbGF0aW9uMmQ8L3RleHQ+JiN4YTs8dGV4dCBmb250LXNpemU9IjguMDAiIGZvbnQtZmFtaWx5PSJCaXRzdHJlYW0gVmVyYSBTYW5zIiB5PSItODcuMSIgeD0iMTE5IiB0ZXh0LWFuY2hvcj0ibWlkZGxlIj4rIHJvdGF0aW9uOlJvdGF0aW9uMmQ8L3RleHQ+JiN4YTs8L2c+JiN4YTsmI3hhOzxnIGNsYXNzPSJlZGdlIiBpZD0iZWRnZTEiPiYjeGE7PHRpdGxlPlBvc2UyZC0mZ3Q7VHJhbnNsYXRpb24yZDwvdGl0bGU+JiN4YTs8cGF0aCBkPSJNMTI2LjA5LC04MC41MUMxMzAuMDYsLTY5LjA0IDEzNC45OSwtNTQuOCAxMzguOTUsLTQzLjM2IiBzdHJva2U9ImJsYWNrIiBmaWxsPSJub25lIi8+JiN4YTs8dGV4dCBmb250LXNpemU9IjguMDAiIGZvbnQtZmFtaWx5PSJCaXRzdHJlYW0gVmVyYSBTYW5zIiB5PSItNDUuOTYiIHg9IjEzNi40NSIgdGV4dC1hbmNob3I9Im1pZGRsZSI+MTwvdGV4dD4mI3hhOzx0ZXh0IGZvbnQtc2l6ZT0iOC4wMCIgZm9udC1mYW1pbHk9IkJpdHN0cmVhbSBWZXJhIFNhbnMiIHk9Ii03NC4xMSIgeD0iMTIzLjU5IiB0ZXh0LWFuY2hvcj0ibWlkZGxlIj4xPC90ZXh0PiYjeGE7PC9nPiYjeGE7JiN4YTs8ZyBjbGFzcz0iZWRnZSIgaWQ9ImVkZ2UyIj4mI3hhOzx0aXRsZT5Qb3NlMmQtJmd0O1JvdGF0aW9uMmQ8L3RpdGxlPiYjeGE7PHBhdGggZD0iTTE1OS45OSwtODAuNTFDMTg1LjI2LC02Ny44NyAyMTcuMjksLTUxLjg1IDI0MS4xMywtMzkuOTQiIHN0cm9rZT0iYmxhY2siIGZpbGw9Im5vbmUiLz4mI3hhOzx0ZXh0IGZvbnQtc2l6ZT0iOC4wMCIgZm9udC1mYW1pbHk9IkJpdHN0cmVhbSBWZXJhIFNhbnMiIHk9Ii00Mi41NCIgeD0iMjM4LjYzIiB0ZXh0LWFuY2hvcj0ibWlkZGxlIj4xPC90ZXh0PiYjeGE7PHRleHQgZm9udC1zaXplPSI4LjAwIiBmb250LWZhbWlseT0iQml0c3RyZWFtIFZlcmEgU2FucyIgeT0iLTc0LjExIiB4PSIxNTcuNDkiIHRleHQtYW5jaG9yPSJtaWRkbGUiPjE8L3RleHQ+JiN4YTs8L2c+JiN4YTsmI3hhOzxnIGNsYXNzPSJub2RlIiBpZD0ibm9kZTQiPiYjeGE7PHRpdGxlPlRyYW5zZm9ybTJkPC90aXRsZT4mI3hhOzxwb2x5Z29uIHBvaW50cz0iMjEzLC04MC41IDIxMywtMTIzLjUgMzY1LC0xMjMuNSAzNjUsLTgwLjUgMjEzLC04MC41IiBzdHJva2U9ImJsYWNrIiBmaWxsPSIjZjJmMmYyIi8+JiN4YTs8dGV4dCBmb250LXNpemU9IjguMDAiIGZvbnQtZmFtaWx5PSJCaXRzdHJlYW0gVmVyYSBTYW5zIiB5PSItMTEzLjEiIHg9IjI4OSIgdGV4dC1hbmNob3I9Im1pZGRsZSI+VHJhbnNmb3JtMmQ8L3RleHQ+JiN4YTs8cG9seWxpbmUgcG9pbnRzPSIyMTMsLTEwNi41IDM2NSwtMTA2LjUiIHN0cm9rZT0iYmxhY2siIGZpbGw9Im5vbmUiLz4mI3hhOzx0ZXh0IGZvbnQtc2l6ZT0iOC4wMCIgZm9udC1mYW1pbHk9IkJpdHN0cmVhbSBWZXJhIFNhbnMiIHk9Ii05Ni4xIiB4PSIyODkiIHRleHQtYW5jaG9yPSJtaWRkbGUiPisgdHJhbnNsYXRpb246VHJhbnNsYXRpb24yZDwvdGV4dD4mI3hhOzx0ZXh0IGZvbnQtc2l6ZT0iOC4wMCIgZm9udC1mYW1pbHk9IkJpdHN0cmVhbSBWZXJhIFNhbnMiIHk9Ii04Ny4xIiB4PSIyODkiIHRleHQtYW5jaG9yPSJtaWRkbGUiPisgcm90YXRpb246Um90YXRpb24yZDwvdGV4dD4mI3hhOzwvZz4mI3hhOyYjeGE7PGcgY2xhc3M9ImVkZ2UiIGlkPSJlZGdlMyI+JiN4YTs8dGl0bGU+VHJhbnNmb3JtMmQtJmd0O1RyYW5zbGF0aW9uMmQ8L3RpdGxlPiYjeGE7PHBhdGggZD0iTTI1MS40MywtODAuNTFDMjMwLjQxLC02OS4wNCAyMDQuMywtNTQuOCAxODMuMzIsLTQzLjM2IiBzdHJva2U9ImJsYWNrIiBmaWxsPSJub25lIi8+JiN4YTs8dGV4dCBmb250LXNpemU9IjguMDAiIGZvbnQtZmFtaWx5PSJCaXRzdHJlYW0gVmVyYSBTYW5zIiB5PSItNDUuOTYiIHg9IjE4MC44MiIgdGV4dC1hbmNob3I9Im1pZGRsZSI+MTwvdGV4dD4mI3hhOzx0ZXh0IGZvbnQtc2l6ZT0iOC4wMCIgZm9udC1mYW1pbHk9IkJpdHN0cmVhbSBWZXJhIFNhbnMiIHk9Ii03NC4xMSIgeD0iMjQ4LjkzIiB0ZXh0LWFuY2hvcj0ibWlkZGxlIj4xPC90ZXh0PiYjeGE7PC9nPiYjeGE7JiN4YTs8ZyBjbGFzcz0iZWRnZSIgaWQ9ImVkZ2U0Ij4mI3hhOzx0aXRsZT5UcmFuc2Zvcm0yZC0mZ3Q7Um90YXRpb24yZDwvdGl0bGU+JiN4YTs8cGF0aCBkPSJNMjg1LjMyLC04MC41MUMyODMuMDUsLTY3Ljg3IDI4MC4xOCwtNTEuODUgMjc4LjA0LC0zOS45NCIgc3Ryb2tlPSJibGFjayIgZmlsbD0ibm9uZSIvPiYjeGE7PHRleHQgZm9udC1zaXplPSI4LjAwIiBmb250LWZhbWlseT0iQml0c3RyZWFtIFZlcmEgU2FucyIgeT0iLTQyLjU0IiB4PSIyNzUuNTQiIHRleHQtYW5jaG9yPSJtaWRkbGUiPjE8L3RleHQ+JiN4YTs8dGV4dCBmb250LXNpemU9IjguMDAiIGZvbnQtZmFtaWx5PSJCaXRzdHJlYW0gVmVyYSBTYW5zIiB5PSItNzQuMTEiIHg9IjI4Mi44MiIgdGV4dC1hbmNob3I9Im1pZGRsZSI+MTwvdGV4dD4mI3hhOzwvZz4mI3hhOyYjeGE7PGcgY2xhc3M9Im5vZGUiIGlkPSJub2RlNSI+JiN4YTs8dGl0bGU+VHdpc3QyZDwvdGl0bGU+JiN4YTs8cG9seWdvbiBwb2ludHM9IjI1Ni41LC0xNjAuNSAyNTYuNSwtMjEyLjUgMzM1LjUsLTIxMi41IDMzNS41LC0xNjAuNSAyNTYuNSwtMTYwLjUiIHN0cm9rZT0iYmxhY2siIGZpbGw9IiNmMmYyZjIiLz4mI3hhOzx0ZXh0IGZvbnQtc2l6ZT0iOC4wMCIgZm9udC1mYW1pbHk9IkJpdHN0cmVhbSBWZXJhIFNhbnMiIHk9Ii0yMDIuMSIgeD0iMjk2IiB0ZXh0LWFuY2hvcj0ibWlkZGxlIj5Ud2lzdDJkPC90ZXh0PiYjeGE7PHBvbHlsaW5lIHBvaW50cz0iMjU2LjUsLTE5NS41IDMzNS41LC0xOTUuNSIgc3Ryb2tlPSJibGFjayIgZmlsbD0ibm9uZSIvPiYjeGE7PHRleHQgZm9udC1zaXplPSI4LjAwIiBmb250LWZhbWlseT0iQml0c3RyZWFtIFZlcmEgU2FucyIgeT0iLTE4NS4xIiB4PSIyOTYiIHRleHQtYW5jaG9yPSJtaWRkbGUiPisgZHg6ZG91YmxlPC90ZXh0PiYjeGE7PHRleHQgZm9udC1zaXplPSI4LjAwIiBmb250LWZhbWlseT0iQml0c3RyZWFtIFZlcmEgU2FucyIgeT0iLTE3Ni4xIiB4PSIyOTYiIHRleHQtYW5jaG9yPSJtaWRkbGUiPisgZHk6ZG91YmxlPC90ZXh0PiYjeGE7PHRleHQgZm9udC1zaXplPSI4LjAwIiBmb250LWZhbWlseT0iQml0c3RyZWFtIFZlcmEgU2FucyIgeT0iLTE2Ny4xIiB4PSIyOTYiIHRleHQtYW5jaG9yPSJtaWRkbGUiPisgZHRoZXRhOmRvdWJsZTwvdGV4dD4mI3hhOzwvZz4mI3hhOyYjeGE7PGcgY2xhc3M9Im5vZGUiIGlkPSJub2RlNiI+JiN4YTs8dGl0bGU+UmVjdGFuZ2xlMmQ8L3RpdGxlPiYjeGE7PHBvbHlnb24gcG9pbnRzPSIwLC0xNjAuNSAwLC0yMTIuNSAxMTAsLTIxMi41IDExMCwtMTYwLjUgMCwtMTYwLjUiIHN0cm9rZT0iYmxhY2siIGZpbGw9IiNmMmYyZjIiLz4mI3hhOzx0ZXh0IGZvbnQtc2l6ZT0iOC4wMCIgZm9udC1mYW1pbHk9IkJpdHN0cmVhbSBWZXJhIFNhbnMiIHk9Ii0yMDIuMSIgeD0iNTUiIHRleHQtYW5jaG9yPSJtaWRkbGUiPlJlY3RhbmdsZTJkPC90ZXh0PiYjeGE7PHBvbHlsaW5lIHBvaW50cz0iMCwtMTk1LjUgMTEwLC0xOTUuNSIgc3Ryb2tlPSJibGFjayIgZmlsbD0ibm9uZSIvPiYjeGE7PHRleHQgZm9udC1zaXplPSI4LjAwIiBmb250LWZhbWlseT0iQml0c3RyZWFtIFZlcmEgU2FucyIgeT0iLTE4NS4xIiB4PSI1NSIgdGV4dC1hbmNob3I9Im1pZGRsZSI+KyBjZW50ZXI6UG9zZTJkPC90ZXh0PiYjeGE7PHRleHQgZm9udC1zaXplPSI4LjAwIiBmb250LWZhbWlseT0iQml0c3RyZWFtIFZlcmEgU2FucyIgeT0iLTE3Ni4xIiB4PSI1NSIgdGV4dC1hbmNob3I9Im1pZGRsZSI+KyB4V2lkdGg6ZG91YmxlPC90ZXh0PiYjeGE7PHRleHQgZm9udC1zaXplPSI4LjAwIiBmb250LWZhbWlseT0iQml0c3RyZWFtIFZlcmEgU2FucyIgeT0iLTE2Ny4xIiB4PSI1NSIgdGV4dC1hbmNob3I9Im1pZGRsZSI+KyB5V2lkdGg6ZG91YmxlPC90ZXh0PiYjeGE7PC9nPiYjeGE7JiN4YTs8ZyBjbGFzcz0iZWRnZSIgaWQ9ImVkZ2U1Ij4mI3hhOzx0aXRsZT5SZWN0YW5nbGUyZC0mZ3Q7UG9zZTJkPC90aXRsZT4mI3hhOzxwYXRoIGQ9Ik03NC4yLC0xNjAuNzVDODMuNDgsLTE0OC43OSA5NC40OCwtMTM0LjYxIDEwMy4yNSwtMTIzLjMiIHN0cm9rZT0iYmxhY2siIGZpbGw9Im5vbmUiLz4mI3hhOzx0ZXh0IGZvbnQtc2l6ZT0iOC4wMCIgZm9udC1mYW1pbHk9IkJpdHN0cmVhbSBWZXJhIFNhbnMiIHk9Ii0xMjUuOSIgeD0iMTAwLjc1IiB0ZXh0LWFuY2hvcj0ibWlkZGxlIj4xPC90ZXh0PiYjeGE7PHRleHQgZm9udC1zaXplPSI4LjAwIiBmb250LWZhbWlseT0iQml0c3RyZWFtIFZlcmEgU2FucyIgeT0iLTE1NC4zNSIgeD0iNzEuNyIgdGV4dC1hbmNob3I9Im1pZGRsZSI+MTwvdGV4dD4mI3hhOzwvZz4mI3hhOyYjeGE7PGcgY2xhc3M9Im5vZGUiIGlkPSJub2RlNyI+JiN4YTs8dGl0bGU+RWxsaXBzZTJkPC90aXRsZT4mI3hhOzxwb2x5Z29uIHBvaW50cz0iMTI4LC0xNjAuNSAxMjgsLTIxMi41IDIzOCwtMjEyLjUgMjM4LC0xNjAuNSAxMjgsLTE2MC41IiBzdHJva2U9ImJsYWNrIiBmaWxsPSIjZjJmMmYyIi8+JiN4YTs8dGV4dCBmb250LXNpemU9IjguMDAiIGZvbnQtZmFtaWx5PSJCaXRzdHJlYW0gVmVyYSBTYW5zIiB5PSItMjAyLjEiIHg9IjE4MyIgdGV4dC1hbmNob3I9Im1pZGRsZSI+RWxsaXBzZTJkPC90ZXh0PiYjeGE7PHBvbHlsaW5lIHBvaW50cz0iMTI4LC0xOTUuNSAyMzgsLTE5NS41IiBzdHJva2U9ImJsYWNrIiBmaWxsPSJub25lIi8+JiN4YTs8dGV4dCBmb250LXNpemU9IjguMDAiIGZvbnQtZmFtaWx5PSJCaXRzdHJlYW0gVmVyYSBTYW5zIiB5PSItMTg1LjEiIHg9IjE4MyIgdGV4dC1hbmNob3I9Im1pZGRsZSI+KyBjZW50ZXI6UG9zZTJkPC90ZXh0PiYjeGE7PHRleHQgZm9udC1zaXplPSI4LjAwIiBmb250LWZhbWlseT0iQml0c3RyZWFtIFZlcmEgU2FucyIgeT0iLTE3Ni4xIiB4PSIxODMiIHRleHQtYW5jaG9yPSJtaWRkbGUiPisgeFNlbWlBeGlzOmRvdWJsZTwvdGV4dD4mI3hhOzx0ZXh0IGZvbnQtc2l6ZT0iOC4wMCIgZm9udC1mYW1pbHk9IkJpdHN0cmVhbSBWZXJhIFNhbnMiIHk9Ii0xNjcuMSIgeD0iMTgzIiB0ZXh0LWFuY2hvcj0ibWlkZGxlIj4rIHlTZW1pQXhpczpkb3VibGU8L3RleHQ+JiN4YTs8L2c+JiN4YTsmI3hhOzxnIGNsYXNzPSJlZGdlIiBpZD0iZWRnZTYiPiYjeGE7PHRpdGxlPkVsbGlwc2UyZC0mZ3Q7UG9zZTJkPC90aXRsZT4mI3hhOzxwYXRoIGQ9Ik0xNjMuOCwtMTYwLjc1QzE1NC41MiwtMTQ4Ljc5IDE0My41MiwtMTM0LjYxIDEzNC43NSwtMTIzLjMiIHN0cm9rZT0iYmxhY2siIGZpbGw9Im5vbmUiLz4mI3hhOzx0ZXh0IGZvbnQtc2l6ZT0iOC4wMCIgZm9udC1mYW1pbHk9IkJpdHN0cmVhbSBWZXJhIFNhbnMiIHk9Ii0xMjUuOSIgeD0iMTMyLjI1IiB0ZXh0LWFuY2hvcj0ibWlkZGxlIj4xPC90ZXh0PiYjeGE7PHRleHQgZm9udC1zaXplPSI4LjAwIiBmb250LWZhbWlseT0iQml0c3RyZWFtIFZlcmEgU2FucyIgeT0iLTE1NC4zNSIgeD0iMTYxLjMiIHRleHQtYW5jaG9yPSJtaWRkbGUiPjE8L3RleHQ+JiN4YTs8L2c+JiN4YTs8L2c+JiN4YTs8L3N2Zz4=;" vertex="1" parent="WIyWlLk6GJQsqaUBKTNV-1">
          <mxGeometry x="1690" y="390" width="479.27" height="283.96" as="geometry" />
        </mxCell>
      </root>
    </mxGraphModel>
  </diagram>
</mxfile>
